<svg viewBox="0 0 1488 400" xmlns="http://www.w3.org/2000/svg"><g><g><g><g><g><line x1="51.5625" y1="377" x2="46.5625" y2="377" style="visibility: inherit;" fill="rgb(0, 0, 0)" stroke="rgb(204, 204, 204)" stroke-width="1px"></line><line x1="51.5625" y1="345.5833333333333" x2="46.5625" y2="345.5833333333333" style="visibility: inherit;" fill="rgb(0, 0, 0)" stroke="rgb(204, 204, 204)" stroke-width="1px"></line><line x1="51.5625" y1="314.16666666666663" x2="46.5625" y2="314.16666666666663" style="visibility: inherit;" fill="rgb(0, 0, 0)" stroke="rgb(204, 204, 204)" stroke-width="1px"></line><line x1="51.5625" y1="282.75" x2="46.5625" y2="282.75" style="visibility: inherit;" fill="rgb(0, 0, 0)" stroke="rgb(204, 204, 204)" stroke-width="1px"></line><line x1="51.5625" y1="251.33333333333337" x2="46.5625" y2="251.33333333333337" style="visibility: inherit;" fill="rgb(0, 0, 0)" stroke="rgb(204, 204, 204)" stroke-width="1px"></line><line x1="51.5625" y1="219.91666666666663" x2="46.5625" y2="219.91666666666663" style="visibility: inherit;" fill="rgb(0, 0, 0)" stroke="rgb(204, 204, 204)" stroke-width="1px"></line><line x1="51.5625" y1="188.50000000000003" x2="46.5625" y2="188.50000000000003" style="visibility: inherit;" fill="rgb(0, 0, 0)" stroke="rgb(204, 204, 204)" stroke-width="1px"></line><line x1="51.5625" y1="157.08333333333337" x2="46.5625" y2="157.08333333333337" style="visibility: inherit;" fill="rgb(0, 0, 0)" stroke="rgb(204, 204, 204)" stroke-width="1px"></line><line x1="51.5625" y1="125.66666666666669" x2="46.5625" y2="125.66666666666669" style="visibility: inherit;" fill="rgb(0, 0, 0)" stroke="rgb(204, 204, 204)" stroke-width="1px"></line><line x1="51.5625" y1="94.25000000000009" x2="46.5625" y2="94.25000000000009" style="visibility: inherit;" fill="rgb(0, 0, 0)" stroke="rgb(204, 204, 204)" stroke-width="1px"></line><line x1="51.5625" y1="62.833333333333364" x2="46.5625" y2="62.833333333333364" style="visibility: inherit;" fill="rgb(0, 0, 0)" stroke="rgb(204, 204, 204)" stroke-width="1px"></line><line x1="51.5625" y1="31.416666666666682" x2="46.5625" y2="31.416666666666682" style="visibility: inherit;" fill="rgb(0, 0, 0)" stroke="rgb(204, 204, 204)" stroke-width="1px"></line><line x1="51.5625" y1="0" x2="46.5625" y2="0" style="visibility: inherit;" fill="rgb(0, 0, 0)" stroke="rgb(204, 204, 204)" stroke-width="1px"></line></g><g transform="translate(41.5625, 0)"><text x="0" y="377" dx="0em" dy="0.3em" style="text-anchor: end; visibility: hidden; font-family: Roboto, sans-serif; font-size: 12px; font-weight: 200;" fill="rgb(33, 33, 33)" stroke="none" stroke-width="1px">0.15</text><text x="0" y="345.5833333333333" dx="0em" dy="0.3em" style="text-anchor: end; visibility: inherit; font-family: Roboto, sans-serif; font-size: 12px; font-weight: 200;" fill="rgb(33, 33, 33)" stroke="none" stroke-width="1px">0.16</text><text x="0" y="314.16666666666663" dx="0em" dy="0.3em" style="text-anchor: end; visibility: inherit; font-family: Roboto, sans-serif; font-size: 12px; font-weight: 200;" fill="rgb(33, 33, 33)" stroke="none" stroke-width="1px">0.17</text><text x="0" y="282.75" dx="0em" dy="0.3em" style="text-anchor: end; visibility: inherit; font-family: Roboto, sans-serif; font-size: 12px; font-weight: 200;" fill="rgb(33, 33, 33)" stroke="none" stroke-width="1px">0.18</text><text x="0" y="251.33333333333337" dx="0em" dy="0.3em" style="text-anchor: end; visibility: inherit; font-family: Roboto, sans-serif; font-size: 12px; font-weight: 200;" fill="rgb(33, 33, 33)" stroke="none" stroke-width="1px">0.19</text><text x="0" y="219.91666666666663" dx="0em" dy="0.3em" style="text-anchor: end; visibility: inherit; font-family: Roboto, sans-serif; font-size: 12px; font-weight: 200;" fill="rgb(33, 33, 33)" stroke="none" stroke-width="1px">0.2</text><text x="0" y="188.50000000000003" dx="0em" dy="0.3em" style="text-anchor: end; visibility: inherit; font-family: Roboto, sans-serif; font-size: 12px; font-weight: 200;" fill="rgb(33, 33, 33)" stroke="none" stroke-width="1px">0.21</text><text x="0" y="157.08333333333337" dx="0em" dy="0.3em" style="text-anchor: end; visibility: inherit; font-family: Roboto, sans-serif; font-size: 12px; font-weight: 200;" fill="rgb(33, 33, 33)" stroke="none" stroke-width="1px">0.22</text><text x="0" y="125.66666666666669" dx="0em" dy="0.3em" style="text-anchor: end; visibility: inherit; font-family: Roboto, sans-serif; font-size: 12px; font-weight: 200;" fill="rgb(33, 33, 33)" stroke="none" stroke-width="1px">0.23</text><text x="0" y="94.25000000000009" dx="0em" dy="0.3em" style="text-anchor: end; visibility: inherit; font-family: Roboto, sans-serif; font-size: 12px; font-weight: 200;" fill="rgb(33, 33, 33)" stroke="none" stroke-width="1px">0.24</text><text x="0" y="62.833333333333364" dx="0em" dy="0.3em" style="text-anchor: end; visibility: inherit; font-family: Roboto, sans-serif; font-size: 12px; font-weight: 200;" fill="rgb(33, 33, 33)" stroke="none" stroke-width="1px">0.25</text><text x="0" y="31.416666666666682" dx="0em" dy="0.3em" style="text-anchor: end; visibility: inherit; font-family: Roboto, sans-serif; font-size: 12px; font-weight: 200;" fill="rgb(33, 33, 33)" stroke="none" stroke-width="1px">0.26</text><text x="0" y="0" dx="0em" dy="0.3em" style="text-anchor: end; visibility: hidden; font-family: Roboto, sans-serif; font-size: 12px; font-weight: 200;" fill="rgb(33, 33, 33)" stroke="none" stroke-width="1px">0.27</text></g><line x1="51.5625" y1="0" x2="51.5625" y2="377" fill="rgb(0, 0, 0)" stroke="rgb(204, 204, 204)" stroke-width="1px"></line></g></g><g transform="translate(51, 0)" clip-path="url(#clip_0)"><clipPath id="clip_0"><rect width="1436" height="377"></rect></clipPath><g><g><g><line x1="0" y1="0" x2="0" y2="377" fill="rgb(0, 0, 0)" stroke="rgb(66, 66, 66)" stroke-width="1px" opacity="0.25"></line><line x1="143.64375" y1="0" x2="143.64375" y2="377" fill="rgb(0, 0, 0)" stroke="rgb(66, 66, 66)" stroke-width="1px" opacity="0.25"></line><line x1="287.2875" y1="0" x2="287.2875" y2="377" fill="rgb(0, 0, 0)" stroke="rgb(66, 66, 66)" stroke-width="1px" opacity="0.25"></line><line x1="430.93125" y1="0" x2="430.93125" y2="377" fill="rgb(0, 0, 0)" stroke="rgb(66, 66, 66)" stroke-width="1px" opacity="0.25"></line><line x1="574.575" y1="0" x2="574.575" y2="377" fill="rgb(0, 0, 0)" stroke="rgb(66, 66, 66)" stroke-width="1px" opacity="0.25"></line><line x1="718.21875" y1="0" x2="718.21875" y2="377" fill="rgb(0, 0, 0)" stroke="rgb(66, 66, 66)" stroke-width="1px" opacity="0.25"></line><line x1="861.8625" y1="0" x2="861.8625" y2="377" fill="rgb(0, 0, 0)" stroke="rgb(66, 66, 66)" stroke-width="1px" opacity="0.25"></line><line x1="1005.5062499999999" y1="0" x2="1005.5062499999999" y2="377" fill="rgb(0, 0, 0)" stroke="rgb(66, 66, 66)" stroke-width="1px" opacity="0.25"></line><line x1="1149.15" y1="0" x2="1149.15" y2="377" fill="rgb(0, 0, 0)" stroke="rgb(66, 66, 66)" stroke-width="1px" opacity="0.25"></line><line x1="1292.79375" y1="0" x2="1292.79375" y2="377" fill="rgb(0, 0, 0)" stroke="rgb(66, 66, 66)" stroke-width="1px" opacity="0.25"></line><line x1="1436.4375" y1="0" x2="1436.4375" y2="377" fill="rgb(0, 0, 0)" stroke="rgb(66, 66, 66)" stroke-width="1px" opacity="0.25"></line></g><g><line x1="0" y1="377" x2="1436.4375" y2="377" fill="rgb(0, 0, 0)" stroke="rgb(66, 66, 66)" stroke-width="1px" opacity="0.25"></line><line x1="0" y1="345.5833333333333" x2="1436.4375" y2="345.5833333333333" fill="rgb(0, 0, 0)" stroke="rgb(66, 66, 66)" stroke-width="1px" opacity="0.25"></line><line x1="0" y1="314.16666666666663" x2="1436.4375" y2="314.16666666666663" fill="rgb(0, 0, 0)" stroke="rgb(66, 66, 66)" stroke-width="1px" opacity="0.25"></line><line x1="0" y1="282.75" x2="1436.4375" y2="282.75" fill="rgb(0, 0, 0)" stroke="rgb(66, 66, 66)" stroke-width="1px" opacity="0.25"></line><line x1="0" y1="251.33333333333337" x2="1436.4375" y2="251.33333333333337" fill="rgb(0, 0, 0)" stroke="rgb(66, 66, 66)" stroke-width="1px" opacity="0.25"></line><line x1="0" y1="219.91666666666663" x2="1436.4375" y2="219.91666666666663" fill="rgb(0, 0, 0)" stroke="rgb(66, 66, 66)" stroke-width="1px" opacity="0.25"></line><line x1="0" y1="188.50000000000003" x2="1436.4375" y2="188.50000000000003" fill="rgb(0, 0, 0)" stroke="rgb(66, 66, 66)" stroke-width="1px" opacity="0.25"></line><line x1="0" y1="157.08333333333337" x2="1436.4375" y2="157.08333333333337" fill="rgb(0, 0, 0)" stroke="rgb(66, 66, 66)" stroke-width="1px" opacity="0.25"></line><line x1="0" y1="125.66666666666669" x2="1436.4375" y2="125.66666666666669" fill="rgb(0, 0, 0)" stroke="rgb(66, 66, 66)" stroke-width="1px" opacity="0.25"></line><line x1="0" y1="94.25000000000009" x2="1436.4375" y2="94.25000000000009" fill="rgb(0, 0, 0)" stroke="rgb(66, 66, 66)" stroke-width="1px" opacity="0.25"></line><line x1="0" y1="62.833333333333364" x2="1436.4375" y2="62.833333333333364" fill="rgb(0, 0, 0)" stroke="rgb(66, 66, 66)" stroke-width="1px" opacity="0.25"></line><line x1="0" y1="31.416666666666682" x2="1436.4375" y2="31.416666666666682" fill="rgb(0, 0, 0)" stroke="rgb(66, 66, 66)" stroke-width="1px" opacity="0.25"></line><line x1="0" y1="0" x2="1436.4375" y2="0" fill="rgb(0, 0, 0)" stroke="rgb(66, 66, 66)" stroke-width="1px" opacity="0.25"></line></g></g></g><g><g><line x1="0" y1="848.25" x2="1436.4375" y2="848.25" fill="rgb(0, 0, 0)" stroke="rgb(153, 153, 153)" stroke-width="1.5px"></line></g></g><g><g><line x1="143.64375" y1="0" x2="143.64375" y2="377" fill="rgb(0, 0, 0)" stroke="rgb(153, 153, 153)" stroke-width="1.5px"></line></g></g><g><g><g><g><g><path stroke="rgb(255, 112, 67)" stroke-width="2px" d="M149.3895,-93.01296856659725L150.82593749999998,19.139533511396404L152.262375,95.86719880770654L153.6988125,170.70461576036755L155.13524999999998,205.04081007458876L156.5716875,191.62900042077115L158.008125,204.2772112817457L159.4445625,219.13221137355274L160.881,227.0031195539895L162.3174375,228.69474571289783L163.753875,200.27925228306887L165.1903125,227.49968885659842L166.62675000000002,227.8595790228118L168.0631875,206.45713083622962L169.49962499999998,204.67777053878726L170.9360625,188.40366276485057L172.3725,202.2660366241448L173.80893749999998,222.52172789583759L175.245375,218.71499226531796L176.6818125,226.9870577499877L178.11825,195.12974209523944L179.5546875,187.1998165101543L180.991125,211.3452606220608L182.4275625,211.75782484037697L183.864,239.4007088534735L185.30043750000002,226.8317630626102L186.736875,244.675069841837L188.1733125,269.33004592447725L189.60975000000002,248.5593571975847L191.0461875,258.7169544887182L192.482625,260.91583600731366L193.91906250000002,240.62050646875775L195.3555,275.9453083503034L196.79193750000002,277.41052554328735L198.22837500000003,254.16164057331966L199.6648125,258.6853227808191L201.10125000000002,248.5815210859487L202.53768749999998,232.08891743214423L203.974125,262.53234526067615L205.41056249999997,259.56073156042305L206.84699999999998,275.99943884921794L208.2834375,282.092655580157L209.71987499999997,289.39292446474906L211.15631249999998,270.52475216139686L212.59275,283.3318452449496L214.02918749999998,250.928448689254L215.465625,287.28240024016185L216.9020625,288.10843837638635L218.33849999999998,285.3367287936524L219.7749375,305.0370422198351L221.211375,314.34389184877114L222.6478125,289.39100902654053L224.08425,294.9029369515837L225.5206875,271.3174212274495L226.957125,261.1874570209297L228.3935625,271.06913443755263L229.83,276.6211532315683L231.2664375,312.8770267403775L232.702875,315.27787492096354L234.13931250000002,291.8363933270368L235.57575,321.3778268280742L237.0121875,299.39202217955085L238.44862500000002,309.19755416134217L239.8850625,324.25452677420316L241.32150000000001,310.92005826639064L242.75793750000003,278.9170307652568L244.194375,277.9368897698173L245.63081250000002,298.2094691726674L247.06724999999997,302.079007496423L248.50368749999998,265.8210661609887L249.940125,289.0549805502049L251.37656249999998,295.8323202852379L252.813,326.03738384191024L254.2494375,328.8290912791718L255.68587499999998,304.4911248197931L257.12231249999996,295.7946659034954L258.55875,316.3384626134117L259.9951875,329.293084608945L261.431625,305.5235148553646L262.8680625,311.8711181412893L264.3045,289.41533287748234L265.7409375,269.4071967902851L267.177375,283.9179812353694L268.6138125,271.63811910838945L270.05025,265.90387742732594L271.4866875,266.8616653026022L272.923125,282.264993548843L274.3595625,287.1086576126731L275.796,319.5465357507895L277.2324375,318.0229298396287L278.668875,331.81175302009046L280.1053125,308.2913851154264L281.54175000000004,309.3848262754529L282.9781875,308.2815653082202L284.414625,284.7482814766846L285.8510625,280.30463977721627L287.2875,298.1221123758989L288.72393750000003,298.38227329794796L290.16037500000004,306.45537278738163L291.5968125,299.86355949254755L293.03325,285.35246135877725L294.46968749999996,306.0518133844166L295.906125,318.47142459980034L297.3425625,298.7791812620444L298.779,295.63485095909533L300.2154375,314.48324798352303L301.65187499999996,290.9826107828226L303.0883125,290.7055710837289L304.52475,294.18366738468666L305.9611875,320.39854035562433L307.397625,303.4541207678287L308.8340625,310.12680651310103L310.27049999999997,288.62008348840294L311.7069375,288.1570542876193L313.143375,290.39257519389804L314.5798125,296.3835394836204L316.01625,297.08779197474735L317.4526875,295.37401142442474L318.889125,267.45307061507845L320.3255625,281.36316752295414L321.762,295.61556535280175L323.1984375,302.65899724950253L324.634875,305.628405899941L326.07131250000003,294.8433776822522L327.50775,287.74403550784797L328.9441875,297.1820853048227L330.380625,290.52957936288885L331.8170625,313.80775465863127L333.25350000000003,330.4136483309498L334.68993750000004,312.981855605314L336.126375,295.48543986535265L337.5628125,292.7789245636634L338.99924999999996,302.08801319547723L340.4356875,309.3071419696901L341.872125,313.135944058551L343.3085625,309.1498979707879L344.745,303.4909378536734L346.1814375,318.44288735676963L347.61787499999997,326.28305663916956L349.0543125,302.4608288601249L350.49075,292.31450621457157L351.9271875,311.1087031295176L353.363625,297.62888084433126L354.8000625,300.4740040118395L356.2365,302.4323967743853L357.6729375,301.09411273095645L359.109375,280.5614599984505L360.5458125,280.3058853170247L361.98225,316.2188664111081L363.4186875,306.4756497044911L364.855125,313.95038712618054L366.2915625,306.1198937590756L367.728,284.83359782869644L369.1644375,270.80515105709446L370.60087500000003,271.4360863497954L372.0373125,294.56032470848766L373.47375,298.7585203984575L374.9101875,313.34145477051715L376.346625,304.372215064179L377.7830625,292.2046687236296L379.21950000000004,309.9118002154947L380.6559375,298.167408309292L382.092375,292.1261047911116L383.5288125,283.85167093424803L384.96525,305.4026767175325L386.40168750000004,287.54493127431044L387.83812500000005,292.2872834990356L389.2745625,294.5043695900798L390.711,287.6662807206686L392.1474375,296.6327759826407L393.58387500000003,-3825.6346097387327L403.63893750000005,-177.76816918967546L405.07537499999995,29.81309192467704L406.51181249999996,118.79817914022388L407.94825,196.31724665991496L409.3846875,237.5506727303983L410.82112499999994,270.0820625149759L412.25756249999995,277.6625669473541L413.69399999999996,251.79954580113088L415.13043749999997,285.2917200802453L416.566875,294.45402683488646L418.0033125,300.9567425132123L419.43974999999995,293.9253741073803L420.87618749999996,306.0432153861639L422.31262499999997,280.76626430278526L423.7490625,282.0624247689576L425.1855,282.33744587299407L426.6219375,310.65180022794317L428.05837499999996,248.5960709985792L429.49481249999997,296.4389837823331L430.93125,293.35105091385157L432.3676875,314.8722936196254L433.804125,315.4697034229711L435.2405625,322.61415182172516L436.67699999999996,300.2594859696582L438.1134375,299.03635348462007L439.549875,274.04880873511L440.9863125,269.4866232483572L442.42275,254.6853137240202L443.8591875,246.68419084104247L445.295625,189.85751654199169L446.7320625,225.38084406748266L448.1685,-410.4161971384594L451.041375,-159.8892295796424L452.4778125,6.736130626673541L453.91425,89.49500287076336L455.3506875,52.44033775230545L456.787125,70.4208786060431L458.2235625,146.17886475145932L459.66,167.88264763009616L461.09643750000004,227.52725341708702L462.532875,232.14868032013126L463.9693125,247.86521625165994L465.40575,258.4261382300348L466.8421875,254.33235005410657L468.27862500000003,269.5950774781236L469.71506250000004,283.27671561036476L471.1515,239.0826915386952L472.5879375,262.70728320779233L474.024375,304.7800423139443L475.46081250000003,293.58036549294644L476.89725000000004,282.83921417239094L478.33368750000005,297.25518738017144L479.770125,279.89178038310405L481.2065625,295.3610770384752L482.64300000000003,301.1239849794079L484.07943750000004,295.2823888004722L485.51587500000005,297.18109560256613L486.95231250000006,305.10632220056897L488.38875,317.15013585178406L489.8251875,287.6817541699907L491.26162500000004,294.75704686927605L492.69806250000005,291.9649011100598L494.13449999999995,232.85994857581073L495.57093749999996,250.17697166223297L497.00737499999997,270.11784531962263L498.4438125,272.65737850243687L499.88025,304.71809101169214L501.31668749999994,251.82184798557503L502.75312499999995,252.12910157067938L504.18956249999997,262.2411199090284L505.626,295.8293473607741L507.0624375,286.45060413200315L508.498875,301.9353597826878L509.93531249999995,291.74788718027594L511.37174999999996,310.5173941211068L512.8081875,263.97244555092834L514.2446249999999,266.70813780230475L515.6810624999999,280.53922017933246L517.1175,296.00085977825313L518.5539375,297.9891845709847L519.990375,274.67717660030326L521.4268125,270.61763800518077L522.86325,234.8802462339582L524.2996875,250.63515621941372L525.736125,269.1360868405565L527.1725625,243.41632527259574L528.609,243.4414678224777L530.0454375,285.1778813526345L531.481875,282.698731747785L532.9183125,286.48923770041387L534.35475,274.9402173764573L535.7911875,284.97579274815723L537.227625,306.95681263750237L538.6640625,289.48276317762594L540.1005,275.1026570676602L541.5369375,276.77926597071706L542.973375,259.8148933951439L544.4098125,293.61959868894303L545.84625,291.910757445651L547.2826875,292.64479708871704L548.719125,309.42188319683936L550.1555625,321.7501357006284L551.592,289.56207252188034L553.0284375,281.55923880920915L554.464875,288.0675427761839L555.9013125,284.8095349836648L557.33775,306.2287140092233L558.7741875,312.4198877017288L560.210625,308.34325777494433L561.6470625000001,309.0389622152061L563.0835000000001,305.5607084453232L564.5199375,307.11809502960006L565.956375,312.45085986408037L567.3928125,313.13718033801985L568.82925,293.0653150040198L570.2656875,312.3131824408942L571.702125,318.0812507376059L573.1385625,310.86041276484633L574.575,298.3595881829454L576.0114375,313.6047518910841L577.4478750000001,312.19585868489L578.8843125000001,308.9628531283414L580.3207500000001,312.4267143038675L581.7571875,288.1150337056974L583.193625,276.1670138416684L584.6300625,282.06755050686985L586.0665,329.5912013451337L587.5029374999999,313.11671265761527L588.9393749999999,304.2373697964379L590.3758124999999,308.4604238852677L591.81225,312.5022631397734L593.2486875,320.5823500639731L594.685125,329.57741624036635L596.1215625,331.4557858939124L597.558,307.1981420080951L598.9944375,307.2208923356389L600.430875,305.60086693704056L601.8673125,287.9151829938487L603.3037499999999,76.73978563112395L604.7401874999999,175.4805434383693L606.176625,91.84199506666714L607.6130625,-97.32846057836342L609.0495,8.708922574376286L610.4859375,31.112680915666868L611.922375,130.008273897771L613.3588125,201.53529671323545L614.79525,251.23751291926055L616.2316875,276.5348409650445L617.668125,296.614245852096L619.1045625,283.0258855185488L620.5409999999999,299.7548598206984L621.9774375,303.0062418852417L623.413875,310.8634108090898L624.8503125,324.12304034339394L626.28675,324.1618151277721L627.7231875,323.68242354852475L629.159625,316.8601236720632L630.5960625,330.36007528184354L632.0325,308.55137889193594L633.4689375,320.47382035418605L634.905375,332.2769557032838L636.3418125000001,321.0115113393776L637.77825,299.17223288633306L639.2146875,312.2073442559513L640.651125,298.916409489775L642.0875625,307.02717336451866L643.524,329.6126320189388L644.9604375,330.9742401853889L646.396875,297.2328859835281L647.8333125,310.2897233507681L649.26975,287.5868331715454L650.7061875,281.00243916859165L652.1426250000001,292.63447105139454L653.5790625000001,303.76068547715715L655.0155,296.4874027173716L656.4519375,328.692434140106L657.888375,346.50746491833127L659.3248125,41.77312877943279L660.76125,155.0032057772288L662.1976875,218.29158150415876L663.634125,262.7992905950224L665.0705625,282.08956956321055L666.5070000000001,318.0430709965272L667.9434375000001,295.3805054295407L669.3798750000001,308.1729633928346L670.8163125,281.0387814812466L672.25275,305.85127509073044L673.6891875,319.35643324912957L675.125625,341.659858421453L676.5620624999999,332.67324272352545L677.9984999999999,313.3322806153184L679.4349374999999,308.0110306914738L680.871375,277.04594542639006L682.3078125,278.32222664191255L683.74425,287.7590110709305L685.1806875,313.0250765150807L686.617125,309.08337744470566L688.0535625,322.5523638748891L689.49,325.6070788795014L690.9264375,322.66458734239694L692.362875,306.8244122109744L693.7993124999999,307.87631728899083L695.2357499999999,297.82578138501407L696.6721875,312.2791361867843L698.108625,315.1704781766409L699.5450625,310.4962872355585L700.9815,308.5714355025334L702.4179375,326.7692003874169L703.854375,312.3031936404021L705.2908125,327.3745796750136L706.72725,317.8187481345821L708.1636875,314.221581255322L709.600125,318.97495243842917L711.0365625,302.5999680175117L712.473,312.00198449574293L713.9094375,316.63786275714074L715.345875,289.76205994603697L716.7823125,323.2749091958066L718.21875,320.6369415625966L719.6551875,339.5378373268269L721.091625,213.65035510081188L722.5280625,271.8272153974661L723.9645,-719.2093618765819L734.0195625,-120.90175245838512L735.456,50.612274517791484L736.8924375,121.72702889055635L738.328875,209.8872171545662L739.7653125,256.75132163393334L741.2017500000001,288.13713551180257L742.6381875000001,292.64260604153094L744.074625,291.3245618572037L745.5110625,304.6083968299747L746.9475,314.4637109965953L748.3839375,322.51323154156637L749.820375,324.07561140409246L751.2568125,325.2643581836489L752.69325,332.1352835243385L754.1296875,323.5654965268835L755.566125,315.78463583353744L757.0025625000001,347.68512049613554L758.4390000000001,351.74539945899335L759.8754375000001,349.02923991508624L761.311875,355.81920357482034L762.7483125,315.1558588938101L764.18475,321.29484468477074L765.6211875,294.4412435597803L767.057625,299.18974688489993L768.4940625,302.2901864678051L769.9305,327.52445264441087L771.3669375000001,329.4700136986315L772.8033750000001,314.1750004891717L774.2398125000001,320.5806608480711L775.6762500000001,316.8840605089565L777.1126875000001,318.31043915169437L778.549125,319.794591581128L779.9855625,327.21974796770127L781.422,290.4561889750845L782.8584375,285.23737235167147L784.294875,291.6567609089525L785.7313125000001,305.1847226427741L787.1677500000001,334.4135012710141L788.6041875000001,328.828103608929L790.0406250000001,282.49886779807576L791.4770625000001,298.68465515070704L792.9135000000001,311.5377912328256L794.3499375000001,316.8620032492646L795.786375,316.7891979946713L797.2228125,323.7828549464953L798.65925,311.39104920747354L800.0956875,330.22029427362963L801.5321250000001,340.00983451211545L802.9685625000001,323.89189423563533L804.4050000000001,336.21279448931875L805.8414375000001,326.1376718997884L807.2778750000001,321.9776115290282L808.7143124999999,330.5402419133161L810.1507499999999,326.62981678822683L811.5871874999999,334.58821555641714L813.0236249999999,318.87959719896764L814.4600624999999,307.6951005212493L815.8965,325.4893866351461L817.3329375,323.85064120915825L818.769375,339.329725069765L820.2058125,327.6308425920986L821.6422499999999,342.47750873115353L823.0786874999999,329.6451628570559L824.5151249999999,344.3144261339189L825.9515624999999,345.95299392733267L827.3879999999999,345.6794653900064L828.8244374999999,324.27767788574675L830.2608749999999,318.0969391060208L831.6973125,309.9901629542709L833.13375,308.3934297276775L834.5701875,337.7210635292475L836.006625,270.7439686644839L837.4430625,279.69338623218334L838.8794999999999,299.89169229387795L840.3159374999999,331.8660083054675L841.7523749999999,358.21360681091784L843.1888124999999,345.62150535962L844.6252499999999,335.30156847425906L846.0616875,322.9519477958795L847.498125,325.59551037005485L848.9345625,316.1229813078159L850.371,316.97412879938565L851.8074375,338.2198125005246L853.243875,324.7028942116388L854.6803125,347.00406704395743L856.1167499999999,348.06943492323006L857.5531874999999,355.74599575537343L858.9896249999999,342.1302567494188L860.4260625,341.50082862609264L861.8625,334.7141568913081L863.2989375,325.4898269288153L864.735375,319.7038913634862L866.1718125,325.15466458603413L867.60825,324.65513960523214L869.0446875,321.96775498391867L870.481125,306.7833191776376L871.9175625,327.83266263747817L873.3539999999999,324.50259404705724L874.7904374999999,327.65689854021923L876.226875,330.1778064799073L877.6633125,307.31101719131647L879.09975,301.5079465543662L880.5361875,313.86011004460465L881.972625,250.26973802653518L883.4090625,258.6121820815855L884.8455,286.9916509414785L886.2819375,304.6476575012052L887.718375,299.4072555646326L889.1548125,324.66369368304964L890.59125,311.7938836554895L892.0276875,313.74832623840626L893.464125,299.58966109141465L894.9005625,301.6504721600895L896.337,288.30962214226037L897.7734375,311.3447799067965L899.209875,318.00286566702147L900.6463125,311.9443821419533L902.08275,294.9886245812529L903.5191875,307.937834883862L904.955625,320.2313627432584L906.3920625,339.29449003522393L907.8285,322.4573559239594L909.2649375,325.55007410894365L910.701375,320.87104009102103L912.1378125,323.215965327682L913.57425,313.94124151889207L915.0106875,320.8174118476533L916.447125,344.4214400377327L917.8835625,321.8892058050506L919.32,332.8748493859692L920.7564375000001,315.96658303953353L922.1928750000001,319.77061592112267L923.6293125,317.52903397224514L925.06575,319.57708606129194L926.5021875,329.60258308254856L927.938625,324.5592146885585L929.3750625,316.50653552445914L930.8115,330.3992599811145L932.2479375,320.89022553161715L933.684375,336.42247524378257L935.1208125,335.8141588837955L936.5572500000001,352.91683180954385L937.9936875000001,326.1067593107203L939.4301250000001,350.10838694232183L940.8665625,347.92136361116656L942.303,358.9244854325919L943.7394375,317.1446968023898L945.175875,336.8141465011193L946.6123125,305.26081272500477L948.04875,305.3044820022845L949.4851875,316.38935017539643L950.9216250000001,290.1156088468646L952.3580625000001,-128.41028553899827L959.54025,-92.43015395009219L960.9766875,53.49490334548336L962.413125,110.76428271109525L963.8495625,202.05290023351517L965.2860000000001,217.24107479173824L966.7224375000001,272.59930920473073L968.1588750000001,303.426580219694L969.5953125000001,297.04095232639395L971.0317500000001,299.6185717254103L972.4681875000001,310.7158031703564L973.9046250000001,306.9438194001635L975.3410625,323.6562986809961L976.7775,324.38444530600015L978.2139375,333.74366784274804L979.650375,327.1695343385949L981.0868125000001,345.21671865567447L982.5232500000001,345.1120314330949L983.9596875000001,325.9478807626821L985.3961250000001,324.25138775380395L986.8325625000001,324.8671675436017L988.2689999999999,325.99062945518784L989.7054374999999,328.54971978509764L991.1418749999999,319.40349503225684L992.5783124999999,316.5547674012181L994.0147499999999,325.0245345977146L995.4511875,337.77206026398324L996.887625,336.1212347202491L998.3240625,313.3904125622705L999.7605,309.6795854547697L1001.1969374999999,299.4104174601482L1002.6333749999999,266.85891935988946L1004.0698124999999,300.73635907628943L1005.5062499999999,299.32247734859874L1006.9426874999999,341.7034831134198L1008.3791249999999,338.2287508420776L1009.8155624999999,345.94590887264195L1011.252,324.06053759357803L1012.6884375,312.18598403951404L1014.124875,296.01324855141365L1015.5613125,303.0232759625863L1016.99775,317.91097136007653L1018.4341874999999,332.2472531080261L1019.8706249999999,335.3196888534237L1021.3070624999999,309.89347143975954L1022.7434999999999,312.60807890896837L1024.1799375,302.4241827460418L1025.616375,299.3298399249091L1027.0528124999998,292.4465761045242L1028.4892499999999,317.7226099924022L1029.9256874999999,326.1022278083825L1031.3621249999999,326.10334037026547L1032.7985625,332.6386728363084L1034.235,298.85987081787067L1035.6714375,326.8485825359488L1037.107875,322.7811455666819L1038.5443125,332.40468161740694L1039.98075,337.55047800405094L1041.4171875,342.14596263724525L1042.853625,318.26191852584253L1044.2900625,327.0541568980303L1045.7265,327.80549824351186L1047.1629375,342.9592897779591L1048.599375,333.07591388147154L1050.0358125,323.3758807034557L1051.47225,310.8955270738163L1052.9086875,308.4339917495306L1054.345125,301.3020684576704L1055.7815625,316.12423409362674L1057.218,331.80353599194706L1058.6544375,-171.8858422116198L1062.96375,-132.19669217733156L1064.4001875,60.04632294058252L1065.836625,154.90845566717462L1067.2730625,235.57674411174267L1068.7095,274.4270386471547L1070.1459375,312.81722720310273L1071.582375,322.530672891012L1073.0188125,338.41207528496057L1074.45525,339.89824499120874L1075.8916875,334.7579383359188L1077.328125,355.17342556352423L1078.7645625,340.0273889710606L1080.201,335.9664251432876L1081.6374375,337.29985448674717L1083.073875,342.8752513584874L1084.5103125,337.0468173319528L1085.94675,356.9237593428947L1087.3831875,358.04259553054914L1088.819625,352.43055117626955L1090.2560625,350.6970001588263L1091.6925,348.7772067167361L1093.1289375000001,333.0479939924478L1094.565375,342.2091295190731L1096.0018125,335.13913742709633L1097.43825,341.95580877865433L1098.8746875,334.48448853297083L1100.311125,330.25303397339405L1101.7475625,327.21148606198125L1103.184,265.69489139749857L1104.6204375,300.0379422988549L1106.056875,326.29875621116486L1107.4933125,304.983587030071L1108.92975,307.6514850120731L1110.3661875,318.80288360681067L1111.802625,309.28272923528704L1113.2390625,313.623971593576L1114.6755,319.74738706083934L1116.1119375,338.375760656189L1117.548375,349.17579715744125L1118.9848125,348.11580377794576L1120.42125,342.45314962254326L1121.8576875,-715.0365154668506L1124.7305625000001,-33.676210335188365L1126.1670000000001,110.36194627803964L1127.6034375000002,204.57617438826404L1129.039875,262.36138046777313L1130.4763125,267.75216200349365L1131.91275,292.97829534449755L1133.3491875,307.9883065551832L1134.785625,316.86864448767795L1136.2220625,-223.69918043703694L1137.6585,11.051150944088649L1139.0949375,142.35068996722785L1140.531375,236.08475642189555L1141.9678125,291.6968523251127L1143.40425,320.16312053325436L1144.8406875,329.95420376572594L1146.277125,333.9438592480436L1147.7135625,326.1586487623144L1149.15,343.6048556843652L1150.5864375,331.4525714484406L1152.022875,340.2465443671278L1153.4593125000001,327.1756025449752L1154.8957500000001,327.3756904560121L1156.3321875000001,325.48507995155205L1157.7686250000002,314.0460410798395L1159.2050625000002,311.45530057260214L1160.6415000000002,304.99984820867866L1162.0779375,328.27056813151813L1163.514375,362.4653388415446L1164.9508125,349.0522074096205L1166.38725,330.6996559814296L1167.8236875,348.8427984425832L1169.260125,349.80101773198896L1170.6965625,342.83595275117835L1172.133,339.15957021256617L1173.5694374999998,318.98340277199145L1175.0058749999998,309.2653719404788L1176.4423124999998,325.5518866550596L1177.8787499999999,333.31313223272593L1179.3151874999999,331.81222103216265L1180.7516249999999,331.03732437994887L1182.1880625,344.5213978038637L1183.6245,336.400829604054L1185.0609375,330.397506990503L1186.497375,314.3545088083371L1187.9338125,339.91537297035205L1189.37025,337.28155355015366L1190.8066875,329.41793455695495L1192.243125,326.8360952060345L1193.6795625,341.623653917765L1195.116,321.3415345525277L1196.5524375,333.04892181012224L1197.988875,337.05735928805586L1199.4253125,330.41441841915395L1200.86175,345.0273170590111L1202.2981875,365.4820480934605L1203.734625,344.95589327564795L1205.1710625,345.332542586829L1206.6074999999998,354.8578543912405L1208.0439374999999,340.3407214433571L1209.4803749999999,318.9380994727583L1210.9168124999999,328.7165346795541L1212.35325,341.4952483885023L1213.7896875,333.95681471104615L1215.226125,360.59909107372283L1216.6625625,346.92712712338636L1218.099,343.87627567480644L1219.5354375,341.16610197403423L1220.971875,345.1949998508596L1222.4083125,309.9123370788914L1223.84475,312.99640467419755L1225.2811875,323.76917979312657L1226.717625,327.0911811939441L1228.1540625,342.2793806861776L1229.5905,363.33062981988616L1231.0269375,332.6063757047591L1232.463375,324.97915225459366L1233.8998125,329.57649033407307L1235.33625,350.68221875512563L1236.7726875,341.85666656385234L1238.209125,351.7669971519135L1239.6455625,344.015540403133L1241.0819999999999,351.3029957922331L1242.5184375,357.68613227677537L1243.954875,366.04001584533165L1245.3913125,348.3066688033937L1246.82775,327.1106691471536L1248.2641875,329.34739366840114L1249.700625,318.7510989427812L1251.1370625,349.7163172237225L1252.5735,358.1164631429601L1254.0099375,350.3385396987173L1255.446375,347.9337864710871L1256.8828125,348.7529353734245L1258.31925,360.4287601154878L1259.7556875,307.2399138674239L1261.192125,300.08294655273954L1262.6285625,317.65476178958374L1264.065,331.5908521900635L1265.5014375,340.9578380558924L1266.937875,351.4790376349709L1268.3743125,362.94408430403996L1269.81075,371.33111910668924L1271.2471875,370.08001264719906L1272.6836250000001,353.6210116930132L1274.1200625,348.01827521049927L1275.5565,346.667296572073L1276.9929375,360.6853836358847L1278.429375,341.198231769478L1279.8658125,333.9042735335484L1281.30225,328.773904554283L1282.7386875,339.8960134440077L1284.175125,341.0399454744704L1285.6115625,358.6912922588217L1287.048,361.6164349810617L1288.4844375,349.79953430670514L1289.920875,340.8243807191334L1291.3573125,332.42329368996707L1292.79375,337.3103076597537L1294.2301875,342.2531792927077L1295.666625,333.65757921586186L1297.1030625,335.53754054854164L1298.5395,346.09052708556163L1299.9759375,340.98664601927936L1301.412375,344.4589823084231L1302.8488125000001,351.9460485913648L1304.2852500000001,354.30195631613094L1305.7216875000001,342.7718398870812L1307.1581250000002,343.14242899627203L1308.5945625,338.2124555401646L1310.031,332.866801833668L1311.4674375,330.0364159915201L1312.903875,317.9078431232781L1314.3403125,340.4136979641921L1315.77675,351.02688478603403L1317.2131875,332.1357999951111L1318.649625,321.3038055704315L1320.0860625,333.7802784585721L1321.5225,323.7984994497161L1322.9589375,324.21842817939887L1324.395375,337.6653840689514L1325.8318125,322.3595551758202L1327.26825,355.0230733598784L1328.7046875,346.34617378386946L1330.141125,339.5063771689321L1331.5775625,341.5601577471326L1333.0140000000001,343.1694324758031L1334.4504375000001,341.7473276801732L1335.8868750000001,338.8834015517131L1337.3233125000002,353.1247018151698L1338.7597500000002,352.7471474114985L1340.1961875000002,358.17561686658445L1341.632625,362.06104250921953L1343.0690625,360.9992966364274L1344.5055,341.2609107758869L1345.9419375,329.04087287781255L1347.378375,298.20919764398104L1348.8148125,324.69885296836634L1350.25125,318.3496441555925L1351.6876875,319.81811458346704L1353.1241249999998,321.32754080977514" style="fill: none;" fill="none"></path></g></g></g></g><g opacity="0.2"><g><g><g><path stroke="rgb(255, 112, 67)" stroke-width="2px" d="M146.516625,-84.5108463664849L147.9530625,207.35001198450726L149.3895,225.2574874162674L150.82593749999998,165.56584022442502L152.262375,202.00918187201023L153.6988125,277.7233194013437L155.13524999999998,255.1033110121886L156.5716875,171.84918629129731L158.008125,223.05833033720654L159.4445625,241.27997775375843L160.881,238.76664868990582L162.3174375,231.22666149834794L163.753875,157.71168104807538L165.1903125,268.29834711551666L166.62675000000002,228.39916044970357L168.0631875,174.36251535514992L169.49962499999998,202.00918187201023L170.9360625,163.99498030046624L172.3725,223.05833033720654L173.80893749999998,252.90415393312776L175.245375,213.00501408179605L176.6818125,239.39499265948933L178.11825,147.3441459933917L179.5546875,175.30498449504378L180.991125,247.56332382063073L182.4275625,212.37667011221254L183.864,280.86499243477977L185.30043750000002,207.97835595409077L186.736875,271.44002014895284L188.1733125,306.3125018725792L189.60975000000002,217.40332823991776L191.0461875,273.9533492128054L192.482625,264.2141581277053L193.91906250000002,210.17751303315163L195.3555,328.9325102617343L196.79193750000002,279.60835131009424L198.22837500000003,219.2883133341869L199.6648125,265.4708460668723L201.10125000000002,233.4258185774088L202.53768749999998,207.35001198450726L203.974125,308.1974869668484L205.41056249999997,255.1033110121886L206.84699999999998,300.6574997752905L208.2834375,291.23248067498207L209.71987499999997,300.34332779049873L211.15631249999998,242.2224937081337L212.59275,302.5424848695596L214.02918749999998,202.323353856802L215.465625,341.8133275657892L216.9020625,289.347495580713L218.33849999999998,281.1791644195715L219.7749375,334.5875123590231L221.211375,328.3041662921508L222.6478125,251.96168479323387L224.08425,303.1708288391431L225.5206875,235.93914764126146L226.957125,245.9925107111534L228.3935625,285.89165056248504L229.83,284.9491814225912L231.2664375,367.2608370035887L232.702875,318.8791471918424L234.13931250000002,256.6741709361474L235.57575,365.6899770796299L237.0121875,266.41331520676613L238.44862500000002,323.90585213402903L239.8850625,346.83998569349444L241.32150000000001,290.91835550467175L242.75793750000003,230.91248951355618L244.194375,276.46667827665806L245.63081250000002,328.61833827694255L247.06724999999997,307.8833149820566L248.50368749999998,211.43415415783727L249.940125,323.90585213402903L251.37656249999998,305.99832988778746L252.813,371.3449791769186L254.2494375,333.0166524350643L255.68587499999998,267.9841751307249L257.12231249999996,282.7499775290489L258.55875,347.1541576782862L259.9951875,348.725017602245L261.431625,269.86916022499406L262.8680625,321.3925230701764L264.3045,255.73165498177212L265.7409375,239.39499265948933L267.177375,305.6841579029957L268.6138125,253.21832591791951L270.05025,257.3025149057309L271.4866875,268.29834711551666L272.923125,305.36998591820395L274.3595625,294.3741537084182L275.796,368.20335295796394L277.2324375,315.73752097288764L278.668875,352.4949877907832L280.1053125,273.0108332584301L281.54175000000004,311.02498801549274L282.9781875,306.626673857371L284.414625,249.44835572938126L285.8510625,273.63917722801364L287.2875,324.8483212739229L288.72393750000003,298.77251468102133L290.16037500000004,318.56502202153206L291.5968125,289.9758395502965L293.03325,263.58581415812176L294.46968749999996,337.1008414228757L295.906125,337.1008414228757L297.3425625,269.24081625541055L298.779,290.91835550467175L300.2154375,342.7558435201645L301.65187499999996,255.73165498177212L303.0883125,290.29001153508824L304.52475,299.40081183612347L305.9611875,359.7208498120308L307.397625,278.03749138613546L308.8340625,320.1358351310094L310.27049999999997,256.35999895135564L311.7069375,287.4625104864438L313.143375,293.7458565533161L314.5798125,305.36998591820395L316.01625,298.1441707114378L317.4526875,292.80334059894085L318.889125,225.57165940105915L320.3255625,302.22831288476783L321.762,316.9941620975733L323.1984375,313.2241450945536L324.634875,310.0825188755989L326.07131250000003,278.66583535571897L327.50775,277.09502224624157L328.9441875,311.3391600002845L330.380625,280.550820449988L331.8170625,348.725017602245L333.25350000000003,355.3224888394276L334.68993750000004,286.8341665168603L336.126375,269.24081625541055L337.5628125,288.71915161112946L338.99924999999996,316.051646143198L340.4356875,320.1358351310094L341.872125,318.8791471918424L343.3085625,303.1708288391431L344.745,295.0024976780017L346.1814375,340.87081161141396L347.61787499999997,338.04331056276953L349.0543125,266.7274871915579L350.49075,277.09502224624157L351.9271875,339.29999850193656L353.363625,277.40914741655195L354.8000625,304.7416887631019L356.2365,305.36998591820395L357.6729375,299.0866866658131L359.109375,249.76248089969158L360.5458125,279.922523294886L361.98225,370.08833805223304L363.4186875,291.8608246445656L364.855125,325.1624932587147L366.2915625,294.3741537084182L367.728,252.90415393312776L369.1644375,249.76248089969158L370.60087500000003,272.3824892888466L372.0373125,329.24668224652606L373.47375,305.0558139334122L374.9101875,335.2158563286066L376.346625,290.91835550467175L377.7830625,273.9533492128054L379.21950000000004,336.4724974532922L380.6559375,280.550820449988L382.092375,283.0641495138407L383.5288125,271.44002014895284L384.96525,337.7291853924592L386.40168750000004,260.7583131094774L387.83812500000005,299.40081183612347L389.2745625,297.82999872664607L390.711,277.40914741655195L392.1474375,310.0825188755989L393.58387500000003,-10009.035688320793L396.45675000000006,-1122.5175755023954L397.8931875,125.66665355861191L399.329625,309.4541749060154L400.76606250000003,-836.6258444190022L402.20250000000004,194.1550226956606L403.63893750000005,236.88166359563672L405.07537499999995,341.1849835962057L406.51181249999996,252.27580996354425L407.94825,312.5958479394515L409.3846875,299.40081183612347L410.82112499999994,318.8791471918424L412.25756249999995,289.0333235959212L413.69399999999996,213.00501408179605L415.13043749999997,335.5299814989169L416.566875,308.1974869668484L418.0033125,310.710816030701L419.43974999999995,283.37832149863243L420.87618749999996,324.2199773043394L422.31262499999997,242.8508376777172L423.7490625,284.00666546821594L425.1855,282.7499775290489L426.6219375,353.12333176036674L428.05837499999996,155.5124771545331L429.49481249999997,368.20335295796394L430.93125,288.71915161112946L432.3676875,347.1541576782862L433.804125,316.36581812798977L435.2405625,333.33082441985607L436.67699999999996,266.7274871915579L438.1134375,297.20165475706256L439.549875,236.56749161084497L440.9863125,262.64334501822793L442.42275,232.48334943751496L443.8591875,234.6825065165758L445.295625,104.6175050934156L446.7320625,278.66583535571897L448.1685,-1364.1117589473722L449.6049375,-501.41000119845046L451.041375,270.4975041945776L452.4778125,256.6741709361474L453.91425,213.63331123689812L455.3506875,-3.1416599253813144L456.787125,97.39168988664947L458.2235625,259.8158439695835L459.66,200.43832194805145L461.09643750000004,316.9941620975733L462.532875,239.08082067469758L463.9693125,271.44002014895284L465.40575,274.26752119759715L466.8421875,248.19166779021424L468.27862500000003,292.4891686141491L469.71506250000004,303.7991728087266L471.1515,172.79165543119115L472.5879375,298.1441707114378L474.024375,367.8891809731722L475.46081250000003,276.7808502614498L476.89725000000004,266.7274871915579L478.33368750000005,318.8791471918424L479.770125,253.84666988750303L481.2065625,318.56502202153206L482.64300000000003,309.76834689080715L484.07943750000004,286.51999453206855L485.51587500000005,300.029155805707L486.95231250000006,316.9941620975733L488.38875,335.2158563286066L489.8251875,243.47918164730072L491.26162500000004,305.36998591820395L492.69806250000005,287.7766824712356L494.13449999999995,144.20251977443698L495.57093749999996,276.1525062918663L497.00737499999997,300.029155805707L498.4438125,276.46667827665806L499.88025,352.809159775575L501.31668749999994,172.4774834463994L502.75312499999995,252.589981948336L504.18956249999997,277.40914741655195L505.626,346.21168853839237L507.0624375,272.3824892888466L508.498875,325.1624932587147L509.93531249999995,276.46667827665806L511.37174999999996,338.67165453235305L512.8081875,194.1550226956606L514.2446249999999,270.81167617936933L515.6810624999999,301.285843744874L517.1175,319.19331917663413L518.5539375,300.97167176008224L519.990375,239.7091646442811L521.4268125,264.52833011249703L522.86325,181.2741585771243L524.2996875,274.26752119759715L525.736125,296.8874827722708L527.1725625,204.83668292065465L528.609,243.47918164730072L530.0454375,347.7825016478697L531.481875,278.9800073405107L532.9183125,292.17499662935734L534.35475,257.61668689052266L535.7911875,300.029155805707L537.227625,339.92834247152007L538.6640625,263.27168898781144L540.1005,253.53249790271127L541.5369375,279.2941793253025L542.973375,234.36833453178406L544.4098125,344.32665662964183L545.84625,289.347495580713L547.2826875,293.7458565533161L548.719125,334.5875123590231L550.1555625,340.2425144563118L551.592,241.27997775375843L553.0284375,269.5549882402023L554.464875,297.82999872664607L555.9013125,279.922523294886L557.33775,338.3574825475613L558.7741875,321.70664824048674L560.210625,302.22831288476783L561.6470625000001,310.0825188755989L563.0835000000001,300.34332779049873L564.5199375,309.4541749060154L565.956375,320.45000711580116L567.3928125,314.16666104892886L568.82925,262.9575170030197L570.2656875,341.1849835962057L571.702125,326.73335318267345L573.1385625,300.029155805707L574.575,279.60835131009424L576.0114375,336.4724974532922L577.4478750000001,310.0825188755989L578.8843125000001,304.11334479351837L580.3207500000001,317.6225060671568L581.7571875,251.64751280844212L583.193625,258.24498404562473L584.6300625,290.91835550467175L586.0665,400.8766776025295L587.5029374999999,288.4049796263377L588.9393749999999,290.91835550467175L590.3758124999999,314.79500501851237L591.81225,318.56502202153206L593.2486875,332.70248045027256L594.685125,343.07001550495625L596.1215625,334.27334037423134L597.558,270.81167617936933L598.9944375,307.2550178269545L600.430875,303.1708288391431L601.8673125,261.3866570790609L603.3037499999999,-240.0233104129631L604.7401874999999,323.5916801492373L606.176625,-33.615827490886L607.6130625,-381.08414404590917L609.0495,167.7649973034859L610.4859375,64.71831842760251L611.922375,278.3516633709272L613.3588125,308.8258309364319L614.79525,325.7908372282982L616.2316875,314.4808330337206L617.668125,326.73335318267345L619.1045625,262.64334501822793L620.5409999999999,324.8483212739229L621.9774375,307.8833149820566L623.413875,322.649164194862L624.8503125,344.0124846448501L626.28675,324.2199773043394L627.7231875,322.96333617965377L629.159625,306.626673857371L630.5960625,350.61000269651413L632.0325,275.83833430707455L633.4689375,338.3574825475613L634.905375,349.9816587269306L636.3418125000001,304.11334479351837L637.77825,266.41331520676613L639.2146875,331.7600113103787L640.651125,278.9800073405107L642.0875625,319.19331917663413L643.524,363.490820000569L644.9604375,333.0166524350643L646.396875,246.6208546807369L647.8333125,329.87497940162814L649.26975,253.53249790271127L650.7061875,271.1258481641611L652.1426250000001,310.0825188755989L653.5790625000001,320.45000711580116L655.0155,285.5774785776933L656.4519375,376.9999812742074L657.888375,373.23001108566916L659.3248125,-415.32837542891485L660.76125,324.8483212739229L662.1976875,313.2241450945536L663.634125,329.5608542313178L665.0705625,311.02498801549274L666.5070000000001,371.97332314650214L667.9434375000001,261.3866570790609L669.3798750000001,327.36165033777553L670.8163125,240.3375086138646L672.25275,343.07001550495625L673.6891875,339.6141704867283L675.125625,375.1149961799383L676.5620624999999,319.19331917663413L677.9984999999999,284.3208374530077L679.4349374999999,300.029155805707L680.871375,230.59831752876443L682.3078125,280.23664846519625L683.74425,301.9141877144575L685.1806875,350.9241746813059L686.617125,303.1708288391431L688.0535625,342.7558435201645L689.49,330.1891513864199L690.9264375,318.2508500367403L692.362875,283.0641495138407L693.7993124999999,309.4541749060154L695.2357499999999,282.7499775290489L696.6721875,333.9591683894396L698.108625,319.5074911614259L699.5450625,303.48500082393485L700.9815,305.6841579029957L702.4179375,354.065847714742L703.854375,290.60418351988L705.2908125,349.9816587269306L706.72725,303.48500082393485L708.1636875,308.8258309364319L709.600125,326.10500921308994L711.0365625,278.03749138613546L712.473,326.10500921308994L713.9094375,323.5916801492373L715.345875,249.44835572938126L716.7823125,373.5441830704609L718.21875,316.6799901127815L719.6551875,367.8891809731722L721.091625,24.819131761789365L722.5280625,359.0925058424473L723.9645,-2205.764227787653L728.2738125,-260.13003655274696L729.71025,51.209203968445514L731.1466875,102.41834801435475L732.583125,-301.2858643432457L734.0195625,165.88001220921677L735.456,307.8833149820566L736.8924375,228.39916044970357L738.328875,342.127499550581L739.7653125,327.0474783529838L741.2017500000001,335.2158563286066L742.6381875000001,299.40081183612347L744.074625,289.347495580713L745.5110625,324.53414928913116L746.9475,329.24668224652606L748.3839375,334.5875123590231L749.820375,326.4191811978817L751.2568125,327.0474783529838L752.69325,342.44167153537273L754.1296875,310.710816030701L755.566125,304.11334479351837L757.0025625000001,395.53584749003244L758.4390000000001,357.83581790328026L759.8754375000001,344.95500059922534L761.311875,366.00414906442165L762.7483125,254.16084187229478L764.18475,330.50332337121165L765.6211875,254.16084187229478L767.057625,306.3125018725792L768.4940625,306.94084584216273L769.9305,365.3758519093195L771.3669375000001,332.3883552799622L772.8033750000001,291.23248067498207L774.2398125000001,330.1891513864199L775.6762500000001,311.3391600002845L777.1126875000001,320.45000711580116L778.549125,322.0208202252785L779.9855625,338.3574825475613L781.422,235.31085048615932L782.8584375,277.40914741655195L784.294875,301.285843744874L785.7313125000001,325.47666524350643L787.1677500000001,378.2566692133744L788.6041875000001,320.45000711580116L790.0406250000001,213.00501408179605L791.4770625000001,322.96333617965377L792.9135000000001,330.8174953560034L794.3499375000001,324.8483212739229L795.786375,316.6799901127815L797.2228125,334.27334037423134L798.65925,292.80334059894085L800.0956875,358.46416187286377L801.5321250000001,354.6941448698441L802.9685625000001,299.7149838209152L804.4050000000001,354.6941448698441L805.8414375000001,311.02498801549274L807.2778750000001,315.73752097288764L808.7143124999999,343.384187489748L810.1507499999999,320.7641791005929L811.5871874999999,346.5258137087027L813.0236249999999,295.31666966279346L814.4600624999999,290.91835550467175L815.8965,352.1808158059915L817.3329375,321.3925230701764L818.769375,362.54835086067516L820.2058125,310.0825188755989L821.6422499999999,364.747507939736L823.0786874999999,310.3966440459092L824.5151249999999,366.3183210492134L825.9515624999999,348.4108456174532L827.3879999999999,345.2691725840171L828.8244374999999,292.17499662935734L830.2608749999999,308.8258309364319L831.6973125,297.82999872664607L833.13375,305.99832988778746L834.5701875,381.7125142316023L836.006625,170.27832636733854L837.4430625,293.1175125837326L838.8794999999999,330.1891513864199L840.3159374999999,379.8274823228518L841.7523749999999,397.73500456909335L843.1888124999999,326.73335318267345L844.6252499999999,319.82166314621765L846.0616875,304.4275167783101L847.498125,329.5608542313178L848.9345625,301.9141877144575L850.371,318.2508500367403L851.8074375,370.08833805223304L853.243875,304.4275167783101L854.6803125,380.4558262924353L856.1167499999999,349.66748674213886L857.5531874999999,367.2608370035887L858.9896249999999,321.70664824048674L860.4260625,340.5566864411036L861.8625,324.53414928913116L863.2989375,311.65333198507625L864.735375,311.02498801549274L866.1718125,333.33082441985607L867.60825,323.90585213402903L869.0446875,317.93667805194855L870.481125,284.00666546821594L871.9175625,359.40667782723904L873.3539999999999,319.5074911614259L874.7904374999999,332.3883552799622L876.226875,333.9591683894396L877.6633125,273.0108332584301L879.09975,292.80334059894085L880.5361875,332.3883552799622L881.972625,154.884179999431L883.4090625,271.1258481641611L884.8455,329.5608542313178L886.2819375,331.13166734079516L887.718375,291.5466526597738L889.1548125,362.54835086067516L890.59125,292.4891686141491L892.0276875,316.6799901127815L893.464125,278.3516633709272L894.9005625,304.7416887631019L896.337,268.29834711551666L897.7734375,345.8975165536006L899.209875,327.98999430735904L900.6463125,302.85665685435134L902.08275,269.5549882402023L903.5191875,327.36165033777553L904.955625,338.67165453235305L906.3920625,367.8891809731722L907.8285,297.20165475706256L909.2649375,330.1891513864199L910.701375,313.8524890641371L912.1378125,326.73335318267345L913.57425,300.029155805707L915.0106875,331.13166734079516L916.447125,379.8274823228518L917.8835625,288.09085445602733L919.32,349.3533147573471L920.7564375000001,290.60418351988L922.1928750000001,325.47666524350643L923.6293125,314.16666104892886L925.06575,322.649164194862L926.5021875,344.6408286144336L927.938625,316.9941620975733L929.3750625,304.4275167783101L930.8115,351.23834666609764L932.2479375,306.626673857371L933.684375,359.7208498120308L935.1208125,334.90168434381485L936.5572500000001,378.57084119816614L937.9936875000001,285.89165056248504L939.4301250000001,386.110828389724L940.8665625,344.6408286144336L942.303,375.4291681647301L943.7394375,254.47501385708654L945.175875,366.3183210492134L946.6123125,257.930812060833L948.04875,305.36998591820395L949.4851875,333.0166524350643L950.9216250000001,250.70499685406685L952.3580625000001,-756.1991271177925L955.2309375000001,-11.624163071314467L956.6673750000001,189.75666172305745L958.1038125,163.68085513015592L959.54025,142.0033158808947L960.9766875,272.3824892888466L962.413125,196.66835175951326L963.8495625,338.9858265171448L965.2860000000001,240.02333662907284L966.7224375000001,355.63666082421935L968.1588750000001,349.66748674213886L969.5953125000001,287.4625104864438L971.0317500000001,303.48500082393485L972.4681875000001,327.36165033777553L973.9046250000001,301.285843744874L975.3410625,348.725017602245L976.7775,325.47666524350643L978.2139375,347.7825016478697L979.650375,317.30833408236504L981.0868125000001,372.2874951312939L982.5232500000001,344.95500059922534L983.9596875000001,297.20165475706256L985.3961250000001,321.70664824048674L986.8325625000001,325.7908372282982L988.2689999999999,327.6758223225673L989.7054374999999,332.3883552799622L991.1418749999999,305.6841579029957L992.5783124999999,312.28167595465976L994.0147499999999,337.7291853924592L995.4511875,356.89334876338637L996.887625,333.6449964046478L998.3240625,279.2941793253025L999.7605,304.11334479351837L1001.1969374999999,284.00666546821594L1002.6333749999999,218.03167220950127L1004.0698124999999,351.5525186508894L1005.5062499999999,297.20165475706256L1006.9426874999999,405.27499176065123L1008.3791249999999,333.0166524350643L1009.8155624999999,357.5216459184885L1011.252,291.23248067498207L1012.6884375,294.3741537084182L1014.124875,271.7541453192631L1015.5613125,313.53831707934535L1016.99775,340.2425144563118L1018.4341874999999,353.75167572995025L1019.8706249999999,339.92834247152007L1021.3070624999999,271.7541453192631L1022.7434999999999,316.6799901127815L1024.1799375,287.14833850165206L1025.616375,294.68832569320995L1027.0528124999998,282.1216803739468L1028.4892499999999,355.63666082421935L1029.9256874999999,338.67165453235305L1031.3621249999999,326.10500921308994L1032.7985625,342.44167153537273L1034.235,248.19166779021424L1035.6714375,368.831650113066L1037.107875,316.6799901127815L1038.5443125,346.83998569349444L1039.98075,345.2691725840171L1041.4171875,349.03918958703673L1042.853625,282.43585235873854L1044.2900625,340.2425144563118L1045.7265,328.9325102617343L1047.1629375,365.6899770796299L1048.599375,318.2508500367403L1050.0358125,308.8258309364319L1051.47225,292.17499662935734L1052.9086875,304.7416887631019L1054.345125,290.60418351988L1055.7815625,338.3574825475613L1057.218,355.3224888394276L1058.6544375,-927.41990951697L1060.090875,-1522.765849212805L1061.5273124999999,255.73165498177212L1062.96375,157.08333707849187L1064.4001875,348.4108456174532L1065.836625,297.20165475706256L1067.2730625,356.5791767785946L1068.7095,332.70248045027256L1070.1459375,370.4025100370248L1071.582375,337.1008414228757L1073.0188125,362.2341788758834L1074.45525,342.127499550581L1075.8916875,327.0474783529838L1077.328125,385.79665640493226L1078.7645625,317.30833408236504L1080.201,329.87497940162814L1081.6374375,339.29999850193656L1083.073875,351.23834666609764L1084.5103125,328.3041662921508L1085.94675,386.73917235930753L1087.3831875,359.7208498120308L1088.819625,344.0124846448501L1090.2560625,348.09667363266146L1091.6925,345.8975165536006L1093.1289375000001,309.4541749060154L1094.565375,355.9508328090111L1096.0018125,324.53414928913116L1097.43825,352.1808158059915L1098.8746875,323.2775081644455L1100.311125,323.90585213402903L1101.7475625,322.649164194862L1103.184,173.41999940077466L1104.6204375,351.5525186508894L1106.056875,365.6899770796299L1107.4933125,273.0108332584301L1108.92975,311.65333198507625L1110.3661875,335.5299814989169L1111.802625,295.0024976780017L1113.2390625,320.1358351310094L1114.6755,328.9325102617343L1116.1119375,366.3183210492134L1117.548375,365.3758519093195L1118.9848125,346.5258137087027L1120.42125,333.9591683894396L1121.8576875,-2301.271013100941L1123.2941250000001,320.1358351310094L1124.7305625000001,367.2608370035887L1126.1670000000001,326.4191811978817L1127.6034375000002,345.8975165536006L1129.039875,349.03918958703673L1130.4763125,275.83833430707455L1131.91275,330.8174953560034L1133.3491875,330.50332337121165L1134.785625,330.1891513864199L1136.2220625,-1034.550917824109L1137.6585,363.17664801577723L1139.0949375,339.29999850193656L1140.531375,376.6858561038971L1141.9678125,375.1149961799383L1143.40425,362.8625228454669L1144.8406875,344.6408286144336L1146.277125,339.92834247152007L1147.7135625,314.4808330337206L1149.15,369.7741660674413L1150.5864375,313.2241450945536L1152.022875,353.4375037451585L1153.4593125000001,307.56918981174624L1154.8957500000001,327.6758223225673L1156.3321875000001,322.649164194862L1157.7686250000002,296.8874827722708L1159.2050625000002,307.56918981174624L1160.6415000000002,295.31666966279346L1162.0779375,363.17664801577723L1163.514375,413.7574949065844L1164.9508125,328.9325102617343L1166.38725,303.1708288391431L1167.8236875,376.0575121343136L1169.260125,351.23834666609764L1170.6965625,332.3883552799622L1172.133,333.6449964046478L1173.5694374999998,288.71915161112946L1175.0058749999998,294.68832569320995L1176.4423124999998,349.9816587269306L1177.8787499999999,344.95500059922534L1179.3151874999999,329.5608542313178L1180.7516249999999,329.87497940162814L1182.1880625,364.747507939736L1183.6245,324.2199773043394L1185.0609375,321.3925230701764L1186.497375,290.29001153508824L1187.9338125,378.2566692133744L1189.37025,333.33082441985607L1190.8066875,317.6225060671568L1192.243125,322.96333617965377L1193.6795625,363.80499198536074L1195.116,290.91835550467175L1196.5524375,350.61000269651413L1197.988875,343.07001550495625L1199.4253125,320.45000711580116L1200.86175,366.9466650187969L1202.2981875,396.16414464513457L1203.734625,314.16666104892886L1205.1710625,345.8975165536006L1206.6074999999998,369.1458220978578L1208.0439374999999,318.56502202153206L1209.4803749999999,286.8341665168603L1210.9168124999999,343.384187489748L1212.35325,360.6633189519246L1213.7896875,322.649164194862L1215.226125,400.56250561773777L1216.6625625,326.4191811978817L1218.099,339.29999850193656L1219.5354375,337.1008414228757L1220.971875,351.23834666609764L1222.4083125,256.98834292093915L1223.84475,317.6225060671568L1225.2811875,339.92834247152007L1226.717625,332.0741832951704L1228.1540625,365.06167992452777L1229.5905,394.9075035204489L1231.0269375,286.51999453206855L1232.463375,313.53831707934535L1233.8998125,336.4724974532922L1235.33625,382.34081138670444L1236.7726875,328.61833827694255L1238.209125,366.63249303400517L1239.6455625,332.3883552799622L1241.0819999999999,362.2341788758834L1242.5184375,367.2608370035887L1243.954875,378.57084119816614L1245.3913125,321.70664824048674L1246.82775,295.31666966279346L1248.2641875,332.70248045027256L1249.700625,302.85665685435134L1251.1370625,396.16414464513457L1252.5735,370.71668202181655L1254.0099375,338.67165453235305L1255.446375,344.32665662964183L1256.8828125,349.9816587269306L1258.31925,377.9424972285826L1259.7556875,227.4566444953283L1261.192125,289.347495580713L1262.6285625,344.0124846448501L1264.065,352.4949877907832L1265.5014375,355.00831685463584L1266.937875,367.2608370035887L1268.3743125,380.14165430764353L1269.81075,383.9116713106632L1271.2471875,368.20335295796394L1272.6836250000001,328.9325102617343L1274.1200625,339.6141704867283L1275.5565,344.6408286144336L1276.9929375,381.7125142316023L1278.429375,311.967503969868L1279.8658125,322.96333617965377L1281.30225,321.07835108538467L1282.7386875,356.5791767785946L1284.175125,342.7558435201645L1285.6115625,385.16831243534875L1287.048,366.00414906442165L1288.4844375,332.0741832951704L1289.920875,327.36165033777553L1291.3573125,319.82166314621765L1292.79375,344.6408286144336L1294.2301875,349.66748674213886L1295.666625,320.7641791005929L1297.1030625,338.3574825475613L1298.5395,361.92000689109165L1299.9759375,333.33082441985607L1301.412375,349.66748674213886L1302.8488125000001,363.17664801577723L1304.2852500000001,357.83581790328026L1305.7216875000001,325.47666524350643L1307.1581250000002,343.6983126600583L1308.5945625,330.8174953560034L1310.031,324.8483212739229L1311.4674375,325.7908372282982L1312.903875,299.7149838209152L1314.3403125,374.17248022556305L1315.77675,366.9466650187969L1317.2131875,303.7991728087266L1318.649625,305.0558139334122L1320.0860625,352.4949877907832L1321.5225,308.8258309364319L1322.9589375,324.8483212739229L1324.395375,357.83581790328026L1325.8318125,299.40081183612347L1327.26825,404.0183506359656L1328.7046875,333.33082441985607L1330.141125,329.24668224652606L1331.5775625,344.6408286144336L1333.0140000000001,345.58334456880885L1334.4504375000001,339.6141704867283L1335.8868750000001,334.5875123590231L1337.3233125000002,374.4866522103548L1338.7597500000002,352.1808158059915L1340.1961875000002,366.3183210492134L1341.632625,367.8891809731722L1343.0690625,359.40667782723904L1344.5055,311.65333198507625L1345.9419375,310.710816030701L1347.378375,251.96168479323387L1348.8148125,364.43333595494425L1350.25125,308.8258309364319L1351.6876875,322.0208202252785L1353.1241249999998,323.5916801492373" style="fill: none;" fill="none"></path></g></g></g></g></g></g><g transform="translate(51, 377)" clip-path="url(#clip_1)"><clipPath id="clip_1"><rect width="1436" height="23"></rect></clipPath><g><g><line x1="0" y1="0" x2="0" y2="5" style="visibility: inherit;" fill="rgb(0, 0, 0)" stroke="rgb(204, 204, 204)" stroke-width="1px"></line><line x1="143.64375" y1="0" x2="143.64375" y2="5" style="visibility: inherit;" fill="rgb(0, 0, 0)" stroke="rgb(204, 204, 204)" stroke-width="1px"></line><line x1="287.2875" y1="0" x2="287.2875" y2="5" style="visibility: inherit;" fill="rgb(0, 0, 0)" stroke="rgb(204, 204, 204)" stroke-width="1px"></line><line x1="430.93125" y1="0" x2="430.93125" y2="5" style="visibility: inherit;" fill="rgb(0, 0, 0)" stroke="rgb(204, 204, 204)" stroke-width="1px"></line><line x1="574.575" y1="0" x2="574.575" y2="5" style="visibility: inherit;" fill="rgb(0, 0, 0)" stroke="rgb(204, 204, 204)" stroke-width="1px"></line><line x1="718.21875" y1="0" x2="718.21875" y2="5" style="visibility: inherit;" fill="rgb(0, 0, 0)" stroke="rgb(204, 204, 204)" stroke-width="1px"></line><line x1="861.8625" y1="0" x2="861.8625" y2="5" style="visibility: inherit;" fill="rgb(0, 0, 0)" stroke="rgb(204, 204, 204)" stroke-width="1px"></line><line x1="1005.5062499999999" y1="0" x2="1005.5062499999999" y2="5" style="visibility: inherit;" fill="rgb(0, 0, 0)" stroke="rgb(204, 204, 204)" stroke-width="1px"></line><line x1="1149.15" y1="0" x2="1149.15" y2="5" style="visibility: inherit;" fill="rgb(0, 0, 0)" stroke="rgb(204, 204, 204)" stroke-width="1px"></line><line x1="1292.79375" y1="0" x2="1292.79375" y2="5" style="visibility: inherit;" fill="rgb(0, 0, 0)" stroke="rgb(204, 204, 204)" stroke-width="1px"></line><line x1="1436.4375" y1="0" x2="1436.4375" y2="5" style="visibility: inherit;" fill="rgb(0, 0, 0)" stroke="rgb(204, 204, 204)" stroke-width="1px"></line></g><g transform="translate(0, 8)"><text x="0" y="0" dx="0em" dy="0.95em" style="text-anchor: middle; visibility: hidden; font-family: Roboto, sans-serif; font-size: 12px; font-weight: 200;" fill="rgb(33, 33, 33)" stroke="none" stroke-width="1px">-2k</text><text x="143.64375" y="0" dx="0em" dy="0.95em" style="text-anchor: middle; visibility: inherit; font-family: Roboto, sans-serif; font-size: 12px; font-weight: 200;" fill="rgb(33, 33, 33)" stroke="none" stroke-width="1px">0</text><text x="287.2875" y="0" dx="0em" dy="0.95em" style="text-anchor: middle; visibility: inherit; font-family: Roboto, sans-serif; font-size: 12px; font-weight: 200;" fill="rgb(33, 33, 33)" stroke="none" stroke-width="1px">2k</text><text x="430.93125" y="0" dx="0em" dy="0.95em" style="text-anchor: middle; visibility: inherit; font-family: Roboto, sans-serif; font-size: 12px; font-weight: 200;" fill="rgb(33, 33, 33)" stroke="none" stroke-width="1px">4k</text><text x="574.575" y="0" dx="0em" dy="0.95em" style="text-anchor: middle; visibility: inherit; font-family: Roboto, sans-serif; font-size: 12px; font-weight: 200;" fill="rgb(33, 33, 33)" stroke="none" stroke-width="1px">6k</text><text x="718.21875" y="0" dx="0em" dy="0.95em" style="text-anchor: middle; visibility: inherit; font-family: Roboto, sans-serif; font-size: 12px; font-weight: 200;" fill="rgb(33, 33, 33)" stroke="none" stroke-width="1px">8k</text><text x="861.8625" y="0" dx="0em" dy="0.95em" style="text-anchor: middle; visibility: inherit; font-family: Roboto, sans-serif; font-size: 12px; font-weight: 200;" fill="rgb(33, 33, 33)" stroke="none" stroke-width="1px">10k</text><text x="1005.5062499999999" y="0" dx="0em" dy="0.95em" style="text-anchor: middle; visibility: inherit; font-family: Roboto, sans-serif; font-size: 12px; font-weight: 200;" fill="rgb(33, 33, 33)" stroke="none" stroke-width="1px">12k</text><text x="1149.15" y="0" dx="0em" dy="0.95em" style="text-anchor: middle; visibility: inherit; font-family: Roboto, sans-serif; font-size: 12px; font-weight: 200;" fill="rgb(33, 33, 33)" stroke="none" stroke-width="1px">14k</text><text x="1292.79375" y="0" dx="0em" dy="0.95em" style="text-anchor: middle; visibility: inherit; font-family: Roboto, sans-serif; font-size: 12px; font-weight: 200;" fill="rgb(33, 33, 33)" stroke="none" stroke-width="1px">16k</text><text x="1436.4375" y="0" dx="0em" dy="0.95em" style="text-anchor: middle; visibility: hidden; font-family: Roboto, sans-serif; font-size: 12px; font-weight: 200;" fill="rgb(33, 33, 33)" stroke="none" stroke-width="1px">18k</text></g><line x1="0" y1="0" x2="1436.4375" y2="0" fill="rgb(0, 0, 0)" stroke="rgb(204, 204, 204)" stroke-width="1px"></line></g></g></g></g></svg>