<svg viewBox="0 0 1489 400" xmlns="http://www.w3.org/2000/svg"><g><g><g><g><g><line x1="51.5625" y1="377" x2="46.5625" y2="377" style="visibility: inherit;" fill="rgb(0, 0, 0)" stroke="rgb(204, 204, 204)" stroke-width="1px"></line><line x1="51.5625" y1="335.1111111111113" x2="46.5625" y2="335.1111111111113" style="visibility: inherit;" fill="rgb(0, 0, 0)" stroke="rgb(204, 204, 204)" stroke-width="1px"></line><line x1="51.5625" y1="293.22222222222234" x2="46.5625" y2="293.22222222222234" style="visibility: inherit;" fill="rgb(0, 0, 0)" stroke="rgb(204, 204, 204)" stroke-width="1px"></line><line x1="51.5625" y1="251.3333333333334" x2="46.5625" y2="251.3333333333334" style="visibility: inherit;" fill="rgb(0, 0, 0)" stroke="rgb(204, 204, 204)" stroke-width="1px"></line><line x1="51.5625" y1="209.44444444444446" x2="46.5625" y2="209.44444444444446" style="visibility: inherit;" fill="rgb(0, 0, 0)" stroke="rgb(204, 204, 204)" stroke-width="1px"></line><line x1="51.5625" y1="167.55555555555554" x2="46.5625" y2="167.55555555555554" style="visibility: inherit;" fill="rgb(0, 0, 0)" stroke="rgb(204, 204, 204)" stroke-width="1px"></line><line x1="51.5625" y1="125.6666666666666" x2="46.5625" y2="125.6666666666666" style="visibility: inherit;" fill="rgb(0, 0, 0)" stroke="rgb(204, 204, 204)" stroke-width="1px"></line><line x1="51.5625" y1="83.7777777777779" x2="46.5625" y2="83.7777777777779" style="visibility: inherit;" fill="rgb(0, 0, 0)" stroke="rgb(204, 204, 204)" stroke-width="1px"></line><line x1="51.5625" y1="41.88888888888895" x2="46.5625" y2="41.88888888888895" style="visibility: inherit;" fill="rgb(0, 0, 0)" stroke="rgb(204, 204, 204)" stroke-width="1px"></line><line x1="51.5625" y1="0" x2="46.5625" y2="0" style="visibility: inherit;" fill="rgb(0, 0, 0)" stroke="rgb(204, 204, 204)" stroke-width="1px"></line></g><g transform="translate(41.5625, 0)"><text x="0" y="377" dx="0em" dy="0.3em" style="text-anchor: end; visibility: hidden; font-family: Roboto, sans-serif; font-size: 12px; font-weight: 200;" fill="rgb(33, 33, 33)" stroke="none" stroke-width="1px">0.34</text><text x="0" y="335.1111111111113" dx="0em" dy="0.3em" style="text-anchor: end; visibility: inherit; font-family: Roboto, sans-serif; font-size: 12px; font-weight: 200;" fill="rgb(33, 33, 33)" stroke="none" stroke-width="1px">0.35</text><text x="0" y="293.22222222222234" dx="0em" dy="0.3em" style="text-anchor: end; visibility: inherit; font-family: Roboto, sans-serif; font-size: 12px; font-weight: 200;" fill="rgb(33, 33, 33)" stroke="none" stroke-width="1px">0.36</text><text x="0" y="251.3333333333334" dx="0em" dy="0.3em" style="text-anchor: end; visibility: inherit; font-family: Roboto, sans-serif; font-size: 12px; font-weight: 200;" fill="rgb(33, 33, 33)" stroke="none" stroke-width="1px">0.37</text><text x="0" y="209.44444444444446" dx="0em" dy="0.3em" style="text-anchor: end; visibility: inherit; font-family: Roboto, sans-serif; font-size: 12px; font-weight: 200;" fill="rgb(33, 33, 33)" stroke="none" stroke-width="1px">0.38</text><text x="0" y="167.55555555555554" dx="0em" dy="0.3em" style="text-anchor: end; visibility: inherit; font-family: Roboto, sans-serif; font-size: 12px; font-weight: 200;" fill="rgb(33, 33, 33)" stroke="none" stroke-width="1px">0.39</text><text x="0" y="125.6666666666666" dx="0em" dy="0.3em" style="text-anchor: end; visibility: inherit; font-family: Roboto, sans-serif; font-size: 12px; font-weight: 200;" fill="rgb(33, 33, 33)" stroke="none" stroke-width="1px">0.4</text><text x="0" y="83.7777777777779" dx="0em" dy="0.3em" style="text-anchor: end; visibility: inherit; font-family: Roboto, sans-serif; font-size: 12px; font-weight: 200;" fill="rgb(33, 33, 33)" stroke="none" stroke-width="1px">0.41</text><text x="0" y="41.88888888888895" dx="0em" dy="0.3em" style="text-anchor: end; visibility: inherit; font-family: Roboto, sans-serif; font-size: 12px; font-weight: 200;" fill="rgb(33, 33, 33)" stroke="none" stroke-width="1px">0.42</text><text x="0" y="0" dx="0em" dy="0.3em" style="text-anchor: end; visibility: hidden; font-family: Roboto, sans-serif; font-size: 12px; font-weight: 200;" fill="rgb(33, 33, 33)" stroke="none" stroke-width="1px">0.43</text></g><line x1="51.5625" y1="0" x2="51.5625" y2="377" fill="rgb(0, 0, 0)" stroke="rgb(204, 204, 204)" stroke-width="1px"></line></g></g><g transform="translate(51, 0)" clip-path="url(#clip_0)"><clipPath id="clip_0"><rect width="1437" height="377"></rect></clipPath><g><g><g><line x1="0" y1="0" x2="0" y2="377" fill="rgb(0, 0, 0)" stroke="rgb(66, 66, 66)" stroke-width="1px" opacity="0.25"></line><line x1="143.74375" y1="0" x2="143.74375" y2="377" fill="rgb(0, 0, 0)" stroke="rgb(66, 66, 66)" stroke-width="1px" opacity="0.25"></line><line x1="287.4875" y1="0" x2="287.4875" y2="377" fill="rgb(0, 0, 0)" stroke="rgb(66, 66, 66)" stroke-width="1px" opacity="0.25"></line><line x1="431.23125" y1="0" x2="431.23125" y2="377" fill="rgb(0, 0, 0)" stroke="rgb(66, 66, 66)" stroke-width="1px" opacity="0.25"></line><line x1="574.975" y1="0" x2="574.975" y2="377" fill="rgb(0, 0, 0)" stroke="rgb(66, 66, 66)" stroke-width="1px" opacity="0.25"></line><line x1="718.71875" y1="0" x2="718.71875" y2="377" fill="rgb(0, 0, 0)" stroke="rgb(66, 66, 66)" stroke-width="1px" opacity="0.25"></line><line x1="862.4625" y1="0" x2="862.4625" y2="377" fill="rgb(0, 0, 0)" stroke="rgb(66, 66, 66)" stroke-width="1px" opacity="0.25"></line><line x1="1006.20625" y1="0" x2="1006.20625" y2="377" fill="rgb(0, 0, 0)" stroke="rgb(66, 66, 66)" stroke-width="1px" opacity="0.25"></line><line x1="1149.95" y1="0" x2="1149.95" y2="377" fill="rgb(0, 0, 0)" stroke="rgb(66, 66, 66)" stroke-width="1px" opacity="0.25"></line><line x1="1293.6937500000001" y1="0" x2="1293.6937500000001" y2="377" fill="rgb(0, 0, 0)" stroke="rgb(66, 66, 66)" stroke-width="1px" opacity="0.25"></line><line x1="1437.4375" y1="0" x2="1437.4375" y2="377" fill="rgb(0, 0, 0)" stroke="rgb(66, 66, 66)" stroke-width="1px" opacity="0.25"></line></g><g><line x1="0" y1="377" x2="1437.4375" y2="377" fill="rgb(0, 0, 0)" stroke="rgb(66, 66, 66)" stroke-width="1px" opacity="0.25"></line><line x1="0" y1="335.1111111111113" x2="1437.4375" y2="335.1111111111113" fill="rgb(0, 0, 0)" stroke="rgb(66, 66, 66)" stroke-width="1px" opacity="0.25"></line><line x1="0" y1="293.22222222222234" x2="1437.4375" y2="293.22222222222234" fill="rgb(0, 0, 0)" stroke="rgb(66, 66, 66)" stroke-width="1px" opacity="0.25"></line><line x1="0" y1="251.3333333333334" x2="1437.4375" y2="251.3333333333334" fill="rgb(0, 0, 0)" stroke="rgb(66, 66, 66)" stroke-width="1px" opacity="0.25"></line><line x1="0" y1="209.44444444444446" x2="1437.4375" y2="209.44444444444446" fill="rgb(0, 0, 0)" stroke="rgb(66, 66, 66)" stroke-width="1px" opacity="0.25"></line><line x1="0" y1="167.55555555555554" x2="1437.4375" y2="167.55555555555554" fill="rgb(0, 0, 0)" stroke="rgb(66, 66, 66)" stroke-width="1px" opacity="0.25"></line><line x1="0" y1="125.6666666666666" x2="1437.4375" y2="125.6666666666666" fill="rgb(0, 0, 0)" stroke="rgb(66, 66, 66)" stroke-width="1px" opacity="0.25"></line><line x1="0" y1="83.7777777777779" x2="1437.4375" y2="83.7777777777779" fill="rgb(0, 0, 0)" stroke="rgb(66, 66, 66)" stroke-width="1px" opacity="0.25"></line><line x1="0" y1="41.88888888888895" x2="1437.4375" y2="41.88888888888895" fill="rgb(0, 0, 0)" stroke="rgb(66, 66, 66)" stroke-width="1px" opacity="0.25"></line><line x1="0" y1="0" x2="1437.4375" y2="0" fill="rgb(0, 0, 0)" stroke="rgb(66, 66, 66)" stroke-width="1px" opacity="0.25"></line></g></g></g><g><g><line x1="0" y1="1801.2222222222229" x2="1437.4375" y2="1801.2222222222229" fill="rgb(0, 0, 0)" stroke="rgb(153, 153, 153)" stroke-width="1.5px"></line></g></g><g><g><line x1="143.74375" y1="0" x2="143.74375" y2="377" fill="rgb(0, 0, 0)" stroke="rgb(153, 153, 153)" stroke-width="1.5px"></line></g></g><g><g><g><g><g><path stroke="rgb(255, 112, 67)" stroke-width="2px" d="M183.992,-17.919688824209118L186.866875,13.390905440681088L189.74175,67.02921847350186L192.616625,63.674726677067554L195.4915,79.2575384956833L198.366375,59.617318791201264L201.24125,65.5954922634695L204.11612499999998,31.984126605932474L206.99099999999999,62.755301853924685L209.865875,92.77919336128647L212.74075,52.6513127725103L215.615625,37.12008355243131L218.4905,77.23036026928278L221.365375,126.59740112921223L224.24025,95.05976638859853L227.115125,74.79673031015008L229.99,128.15318554131667L232.864875,160.5021180235301L235.73975000000002,197.50483267025655L238.61462500000002,173.12602337126052L241.48950000000002,168.049392374153L244.36437500000002,143.38875545958467L247.23924999999997,103.62659738450061L250.11412499999997,54.13329313556761L252.98899999999998,128.65688318350428L255.86387499999998,102.49501059124005L258.73875,160.35479779230732L261.613625,139.9448828935408L264.4885,92.67980430075598L267.363375,85.26523157140227L270.23825,81.31913814319043L273.113125,96.04213844846792L275.988,141.73818562315805L278.86287500000003,169.15581392614772L281.73775,161.31079859869538L284.61262500000004,128.6220123432522L287.4875,150.22740589902384L290.36237500000004,182.4595325192918L293.23724999999996,128.91218137334744L296.112125,186.92863752343362L298.98699999999997,155.7216033889409L301.861875,162.46585899182622L304.73675,130.8230491388363L307.611625,164.6173828017573L310.4865,170.48421097428843L313.361375,148.03318158631762L316.23625,189.35323429545434L319.111125,129.19458439347702L321.986,150.23588228065339L324.860875,152.6397738817977L327.73575,146.70963947026482L330.610625,138.2924403617364L333.4855,222.71680410190598L336.36037500000003,191.2692085129406L339.23525,155.9801784316797L342.110125,93.58809507450064L344.985,142.2764103631478L347.859875,180.2022861082201L350.73475,128.39560051858177L353.609625,131.66048524439182L356.4845,133.61941607987816L359.359375,129.93565611956092L362.23425,174.97606768890097L365.109125,170.16476946152258L367.984,105.28243417057261L370.858875,105.05834739381474L373.73375,120.67413448808557L376.608625,187.18004463756208L379.4835,191.39422751254313L382.358375,175.3240803182643L385.23325,174.22734514941587L388.10812500000003,150.9492956589516L390.983,153.57047211672L393.85787500000004,162.68318078776622L396.73275,149.21703228734842L399.60762500000004,170.9622375888603L402.4825,201.10001712975753L405.35737499999993,215.66403352779872L408.23224999999996,169.44418966509528L411.10712499999994,177.40164656217823L413.98199999999997,205.9690128650822L416.85687499999995,217.74761404182533L419.73175,231.1818937687571L422.60662499999995,183.11137406333586L425.4815,176.55395384546037L428.35637499999996,207.3034646426593L431.23125,80.31498373372405L434.10612499999996,143.36054691434404L436.981,199.95412510159562L439.85587499999997,193.86449048102347L442.73075,178.48182201824181L445.605625,137.4166258361435L448.4805,156.00687413797436L451.355375,141.35748018719812L454.23025,183.67227947253815L457.105125,195.4891540102494L459.98,210.4543983130388L462.854875,209.0450744039389L465.72975,218.5879505492527L468.604625,194.32119847506604L471.47950000000003,212.0993925429273L474.354375,247.73208492379703L477.22925000000004,220.1854488878992L480.104125,203.15481705841697L482.97900000000004,232.81468606948576L485.853875,216.09412803692115L488.72875000000005,239.74045572942003L491.603625,197.12693123578353L494.47849999999994,162.84592996771732L497.35337499999997,54.1431131367024L500.22824999999995,47.90097827406207L503.103125,61.246353716468406L505.97799999999995,193.91492525851345L508.852875,164.1023108595215L511.72774999999996,214.2422508763104L514.602625,178.1417736378079L517.4775,182.2850801620277L520.3523749999999,178.5714784798392L523.22725,-373.9091534996276L531.851875,-56.26106289670816L534.72675,38.79491054692974L537.601625,134.5338589463711L540.4765,149.2505621183364L543.351375,103.9600973117089L546.22625,96.05470891455569L549.101125,107.73194860414526L551.976,162.156493387595L554.850875,125.27566110675706L557.7257500000001,134.31252327512786L560.600625,152.8039454662534L563.4755,163.89879878092873L566.350375,172.56641147240106L569.2252500000001,167.713625380289L572.100125,181.22237651745638L574.975,193.34897866964437L577.849875,163.09250933864425L580.7247500000001,169.73682032058534L583.5996250000001,-248.34901652185863L586.4744999999999,-23.007608485909465L589.349375,92.09052892166847L592.22425,149.08540689199918L595.099125,199.03257283452345L597.9739999999999,223.30398694670797L600.848875,201.50728856720482L603.72375,224.62128296215096L606.598625,258.59633707766346L609.4735,216.4831130490578L612.348375,194.7338798938386L615.22325,183.1923405599841L618.098125,211.28649667137364L620.973,208.7065664272186L623.847875,224.91949820827188L626.72275,242.01967671367652L629.597625,235.02159403276326L632.4725,228.3093935136046L635.347375,251.0909664853176L638.22225,205.94788845654233L641.097125,183.21850989294248L643.972,215.1560163168709L646.8468750000001,201.98027485885495L649.72175,224.90507473714126L652.596625,223.24483228756506L655.4715,196.61267731011034L658.3463750000001,265.584065851093L661.22125,242.45799171054938L664.096125,245.33788680243578L666.971,248.90894120062242L669.8458750000001,227.2586816748803L672.7207500000001,224.824529874374L675.5956249999999,53.63025909877131L678.4705,137.90571604831135L681.345375,160.48921315932807L684.22025,153.76507058778125L687.0951249999999,75.67102421611455L689.97,147.10882364882977L692.844875,156.79554093981153L695.71975,174.33645900483887L698.594625,198.60054830151373L701.4695,227.23365712095531L704.344375,250.78064143350605L707.21925,244.2994743991017L710.094125,241.58370788940502L712.969,244.64578308558367L715.843875,236.09455771251737L718.71875,244.03317731422734L721.593625,272.25412445612955L724.4685,294.883578194601L727.343375,302.59683156018815L730.21825,251.26122946212558L733.093125,244.08517700832996L735.968,262.0644371414298L738.842875,255.76133686129936L741.71775,256.503478371052L744.592625,244.54964201890985L747.4675,244.7498095798441L750.3423750000001,275.8676882936657L753.21725,266.3890551036391L756.092125,251.31875505018317L758.967,309.96901682596257L761.8418750000001,331.92228564171506L764.71675,275.05603757231535L767.591625,240.26605516311983L770.4665,235.81253844548402L773.3413750000001,243.52884897022915L776.2162500000001,241.7915162641905L779.091125,230.36069608524076L781.966,202.39019614799278L784.8408750000001,187.78613031247664L787.7157500000001,216.72365485764536L790.590625,209.6230937879834L793.4655,241.21965378505658L796.3403750000001,236.38469761864613L799.2152500000001,262.9735015367842L802.0901250000001,274.23519885022364L804.965,279.1490998952325L807.8398750000001,258.63966514136143L810.7147499999999,255.04689086092307L813.589625,253.56145986021588L816.4644999999999,260.37778741578876L819.3393749999999,295.29777876678145L822.2142499999999,279.21999316300787L825.089125,303.08445088861555L827.9639999999999,317.738242307758L830.8388749999999,275.7611483517688L833.7137499999999,257.1095943586734L836.588625,270.2142043354139L839.4635,233.00453690276038L842.3383749999999,302.1640704156754L845.2132499999999,279.9886502500122L848.088125,232.83720221441118L850.963,246.93788247697253L853.8378749999999,280.0289497908848L856.7127499999999,311.7800612292824L859.587625,294.3035978858951L862.4625,271.7537154056467L865.337375,259.2291362688313L868.2122499999999,265.1188104606225L871.087125,221.23441400600117L873.962,247.68374577247695L876.836875,216.9729108543876L879.7117499999999,184.63928808626295L882.586625,202.60401162353554L885.4615,165.62952799242504L888.336375,199.40839193117364L891.21125,224.86994553980952L894.086125,219.03486987511283L896.961,208.66405524746574L899.835875,251.70288478362824L902.71075,225.41639649818634L905.585625,245.50140016579144L908.4605,253.5310508964669L911.335375,275.94219783825287L914.21025,247.66752055151161L917.0851250000001,279.79649906805236L919.96,270.4218755517136L922.834875,248.54421207364123L925.70975,255.69185482495453L928.5846250000001,251.4351372634707L931.4595,247.03798938352568L934.334375,253.11258722744276L937.20925,302.6675463442122L940.0841250000001,291.18185650585116L942.9590000000001,306.74286763237745L945.833875,337.6941822815612L948.70875,329.623611212029L951.5836250000001,299.1452590626005L954.4585000000001,285.88494959416454L957.333375,308.92654209036465L960.20825,277.5114808097742L963.0831250000001,257.99221047386425L965.9580000000001,261.1931204409229L968.8328750000001,307.85098305607806L971.70775,290.94080063063876L974.5826250000001,291.85334529825764L977.4575000000001,307.3133442674334L980.3323750000001,321.6159955347135L983.20725,347.4558260146843L986.0821250000001,299.1210506050892L988.9569999999999,283.18954018488165L991.831875,247.99462442504813L994.7067499999999,245.81144867219342L997.5816249999999,284.21220796962587L1000.4564999999999,249.27845866345052L1003.331375,231.16662683868674L1006.20625,238.73065123893045L1009.0811249999999,284.9903813954426L1011.9559999999999,260.46890005804494L1014.830875,219.9524683237316L1017.70575,270.2048203198259L1020.5806249999999,291.3082281618203L1023.4554999999999,247.001368398269L1026.330375,167.13458275749926L1029.20525,198.30077402299764L1032.080125,235.4315623419518L1034.955,234.0847265282825L1037.829875,281.8677097852761L1040.7047499999999,318.0775025358571L1043.579625,298.41717945361785L1046.4545,303.5441085400992L1049.329375,290.5349100478841L1052.20425,268.15203556772855L1055.079125,277.3423192687902L1057.954,284.3644900487043L1060.828875,261.2662490255013L1063.70375,244.2237698688598L1066.578625,262.8178264253036L1069.4535,290.39468315160445L1072.328375,293.70390893766984L1075.20325,310.93703336169165L1078.078125,327.97909388532133L1080.953,305.6985514629609L1083.827875,315.6204679662554L1086.70275,318.054966541735L1089.577625,331.9147370095697L1092.4525,319.4537082441703L1095.327375,302.42643742132526L1098.20225,314.9976167409389L1101.077125,293.218130074335L1103.952,292.54955933236664L1106.826875,341.2422017757711L1109.70175,277.9671029179728L1112.576625,231.95939059896557L1115.4515000000001,241.71961047026156L1118.326375,281.2544548405236L1121.20125,276.32335083641755L1124.076125,284.0882257730585L1126.951,298.9680378662044L1129.825875,311.74969323236724L1132.70075,270.9951351310352L1135.575625,274.1890605451655L1138.4505000000001,301.57389187718707L1141.3253750000001,317.50209053300983L1144.20025,350.1817182590488L1147.075125,337.11613279852156L1149.95,326.9310139712069L1152.824875,319.64705889931895L1155.69975,303.882914949526L1158.574625,281.35507375410043L1161.4495000000002,242.53747631291372L1164.3243750000001,321.79090594359144L1167.1992500000001,315.39011030725055L1170.0741249999999,331.823823828156L1172.9489999999998,292.4227336279482L1175.8238749999998,259.9016595117738L1178.69875,289.6503333548204L1181.573625,288.73329738176835L1184.4485,325.38043957191894L1187.323375,286.71358573115117L1190.19825,317.2987934172726L1193.073125,268.4601763644826L1195.9479999999999,286.40767367833917L1198.8228749999998,315.6072955617553L1201.69775,282.5252832439423L1204.572625,294.8467378060151L1207.4475,325.697385924135L1210.322375,249.87397312811134L1213.19725,300.22172767667L1216.072125,322.5552608256421L1218.947,322.0482588977545L1221.8218749999999,302.81028403797654L1224.69675,289.59196513866726L1227.571625,301.7676312776262L1230.4465,344.42722745648143L1233.321375,320.76166685104386L1236.19625,342.2516437670393L1239.071125,324.98566866654295L1241.946,335.73809143612345L1244.820875,351.9077320856425L1247.69575,317.37485004837754L1250.570625,298.1631213852956L1253.4455,332.8814513170901L1256.320375,323.55243809062694L1259.19525,309.2421435828646L1262.070125,230.2826407355782L1264.945,269.36557117849225L1267.819875,312.5869200744542L1270.69475,352.76191807763325L1273.569625,310.8500589905772L1276.4445,298.7722484284463L1279.319375,309.621568802492L1282.19425,303.229389560982L1285.069125,321.1763234135098L1287.944,356.40755952178966L1290.818875,328.6200996577845L1293.6937500000001,309.93697297216096L1296.568625,310.62351807539056L1299.4435,305.6736764677761L1302.318375,318.45396072808626L1305.19325,352.5959077837026L1308.068125,318.29045561060383L1310.943,283.46494570569575L1313.817875,278.31987892307654L1316.6927500000002,334.3799275136394L1319.5676250000001,292.95104548790465L1322.4425,300.2644281606711L1325.317375,312.1924106252693L1328.19225,348.67144429784713L1331.067125,335.37220143007943L1333.942,337.11089263263636L1336.816875,314.3612151895162L1339.6917500000002,346.1189589261198L1342.5666250000002,363.4980212491925L1345.4415000000001,344.26814760088644L1348.3163749999999,264.0324312527164L1351.1912499999999,268.33590423473163L1354.0661249999998,257.51356635005993" style="fill: none;" fill="none"></path></g></g></g></g><g opacity="0.2"><g><g><g><path stroke="rgb(255, 112, 67)" stroke-width="2px" d="M152.368375,-317.0988561312359L155.24325,4.188929835955274L158.118125,-36.44329358471769L160.993,59.48220045036738L163.867875,-147.86775161160367L175.367375,-85.87227016025122L178.24225,2.93217947747969L181.117125,21.36335290802846L183.992,3.769971436924386L186.866875,60.31999240981207L189.74175,147.44885812865368L192.616625,58.64440849092273L195.4915,102.62779974937439L198.366375,30.159981224271977L201.24125,74.56220604313745L204.11612499999998,-18.431078553199768L206.99099999999999,108.91105218728386L209.865875,137.8144378529655L212.74075,-7.540032757653177L215.615625,13.823350111643446L218.4905,137.3956042925517L221.365375,200.64783610237973L224.24025,47.75336269537605L227.115125,44.40219485759735L229.99,208.18783889876477L232.864875,209.0255060195923L235.73975000000002,253.00889727804403L238.61462500000002,136.557812333107L241.48950000000002,160.43444624212054L244.36437500000002,106.3978011475669L247.23924999999997,43.98336129718354L250.11412499999997,-20.10666247208916L252.98899999999998,240.442267563608L255.86387499999998,63.252201848559885L258.73875,247.14447840054834L261.613625,109.33001058631476L264.4885,21.782186468442266L267.363375,74.14337248272363L270.23825,75.39999800258215L273.113125,118.12663890255823L275.988,210.2822563780679L278.86287500000003,210.2822563780679L281.73775,149.5432756079568L284.61262500000004,79.58883296118842L287.4875,182.63549623224475L290.36237500000004,230.8077224493027L293.23724999999996,48.59115465482075L296.112125,273.95332174830975L298.98699999999997,108.91105218728386L301.861875,172.5822423961428L304.73675,83.35883435938092L307.611625,215.3088832961189L310.4865,179.28445323308313L313.361375,114.35663750436572L316.23625,251.33331335915463L319.111125,38.95660954051545L321.986,181.79782911141717L324.860875,156.24561128351428L327.73575,137.8144378529655L330.610625,125.66664169894324L333.4855,349.35334971215997L336.36037500000003,144.09781512949206L339.23525,103.04663330978819L342.110125,-0.000029961268162903565L344.985,215.3088832961189L347.859875,237.09109972582928L350.73475,50.6855721341239L353.609625,136.557812333107L356.4845,136.557812333107L359.359375,124.41001617908478L362.23425,242.53668504291116L365.109125,162.9478221204546L367.984,7.958931234147781L370.858875,104.72221722867755L373.73375,144.09781512949206L376.608625,286.93890986177666L379.4835,197.7155018250148L382.358375,151.2188595268462L385.23325,172.5822423961428L388.10812500000003,116.03222142325507L390.983,157.50223680337274L393.85787500000004,176.3522437943353L396.73275,129.01780953672198L399.60762500000004,203.58004554112756L402.4825,246.30668644110366L405.35737499999993,237.51005812486017L408.23224999999996,100.11442387104034L411.10712499999994,189.33783190780218L413.98199999999997,248.8200623194377L416.85687499999995,235.4155158069399L419.73175,251.33331335915463L422.60662499999995,111.0055945052041L425.4815,166.71782351864712L428.35637499999996,253.4277308384578L431.23125,-110.16773762967861L434.10612499999996,237.92889168527395L436.981,284.8444923824735L439.85587499999997,184.730038550165L442.73075,155.40781932406958L445.605625,75.81883156299591L448.4805,183.89224659072033L451.355375,119.38338926103381L454.23025,247.14447840054834L457.105125,213.21446581681573L459.98,232.902264767223L462.854875,206.9310885402892L465.72975,232.902264767223L468.604625,157.9210703637865L471.47950000000003,238.76668364471865L474.354375,301.181123495102L477.22925000000004,178.86549483405224L480.104125,177.60886931419375L482.97900000000004,277.3044895860885L485.853875,191.01329098807446L488.72875000000005,275.2099472681682L491.603625,133.2066444953283L494.47849999999994,111.4244280656179L497.35337499999997,-108.91111210982011L500.22824999999995,38.537775980101685L503.103125,81.26441688007776L505.97799999999995,392.91778257158074L508.852875,119.38338926103381L511.72774999999996,289.4521609014936L514.602625,123.9910577800539L517.4775,188.5000399483575L520.3523749999999,173.00107595655658L523.22725,-1202.6301014688286L526.102125,-186.82439111338732L528.977,47.33440429634516L531.851875,100.11442387104034L534.72675,181.3788707123863L537.601625,278.14228154553314L540.4765,171.3256168762843L543.351375,36.02440010176764L546.22625,84.19662631882562L549.101125,125.24780813852948L551.976,243.79331056276962L554.850875,69.95441268550024L557.7257500000001,147.86781652768457L560.600625,180.5410787529416L563.4755,180.5410787529416L566.350375,185.56783050960968L569.2252500000001,160.43444624212054L572.100125,201.4855032232073L574.975,211.53888189792636L577.849875,117.70780534214445L580.7247500000001,179.70328679349691L583.5996250000001,-875.4777717855244L586.4744999999999,315.0045035680136L589.349375,264.73773503303534L592.22425,234.57772384749524L595.099125,273.95332174830975L597.9739999999999,259.71110811498437L600.848875,168.81224099795025L603.72375,259.2922745545706L606.598625,309.5589182509317L609.4735,153.31327700614932L612.348375,162.11003016100995L615.22325,165.88003155920245L618.098125,253.4277308384578L620.973,204.83667106098605L623.847875,249.2388958798515L626.72275,267.6699444717832L629.597625,224.52447001139328L632.4725,218.2410927348667L635.347375,285.26332594288726L638.22225,138.23327141337927L641.097125,149.12444204754303L643.972,263.0622759527631L646.8468750000001,182.21666267183096L649.72175,259.2922745545706L652.596625,220.75446861320074L655.4715,156.66444484392804L658.3463750000001,369.0411486625672L661.22125,207.76888049973385L664.096125,249.65772944026529L666.971,254.2655227979025L669.8458750000001,194.78329238626696L672.7207500000001,221.17330217361453L675.5956249999999,-203.1611470646329L678.4705,264.3189014726216L681.345375,194.36445882585315L684.22025,143.67885673046115L687.0951249999999,-41.470045341385784L689.97,254.2655227979025L692.844875,171.3256168762843L695.71975,200.64783610237973L698.594625,234.99668224652612L701.4695,270.18332035011724L704.344375,286.10111790233196L707.21925,234.57772384749524L710.094125,237.51005812486017L712.969,249.2388958798515L715.843875,223.2677196529177L718.71875,255.94110671679184L721.593625,314.5855451689827L724.4685,328.82775880230804L727.343375,314.1667116085689L730.21825,174.25782631503216L733.093125,233.3210983276368L735.968,289.03332734107977L738.842875,246.30668644110366L741.71775,257.6166906356812L744.592625,226.61888749069644L747.4675,245.0500609212452L750.3423750000001,322.5445063643986L753.21725,252.17110531859933L756.092125,228.7133049699996L758.967,397.9444094896317L761.8418750000001,364.8521888653438L764.71675,189.75666546821597L767.591625,188.08108154932663L770.4665,229.13226336903048L773.3413750000001,255.1033147573472L776.2162500000001,239.1855172051324L779.091125,213.21446581681573L781.966,160.43444624212054L784.8408750000001,165.88003155920245L787.7157500000001,260.1299416753982L790.590625,198.97225218349035L793.4655,288.614493780666L796.3403750000001,229.13226336903048L799.2152500000001,302.8567074139914L802.0901250000001,291.12774482038293L804.965,286.5199514627457L807.8398750000001,227.8755130105549L810.7147499999999,249.65772944026529L813.589625,251.33331335915463L816.4644999999999,270.6022787491481L819.3393749999999,347.6777657932706L822.2142499999999,255.1033147573472L825.089125,338.88113747702715L827.9639999999999,339.7189294364718L830.8388749999999,212.79550741778485L833.7137499999999,229.13226336903048L836.588625,289.87111930052447L839.4635,177.19003575377997L842.3383749999999,405.9033706850477L845.2132499999999,246.72552000151745L848.088125,162.11003016100995L850.963,268.0889028708141L853.8378749999999,329.66555076175274L856.7127499999999,359.406728386879L859.587625,268.0889028708141L862.4625,237.92889168527395L865.337375,240.442267563608L868.2122499999999,273.95332174830975L871.087125,155.40781932406958L873.962,287.3577434221904L876.836875,170.90665847725342L879.7117499999999,136.1388539340761L882.586625,229.55109692944424L885.4615,110.1678025457594L888.336375,250.07668783929617L891.21125,263.0622759527631L894.086125,210.2822563780679L896.961,193.10783330599472L899.835875,316.26112908787206L902.71075,185.98666407002347L905.585625,275.6289056671991L908.4605,265.57552699248004L911.335375,309.5589182509317L914.21025,205.2555046213998L917.0851250000001,327.9899668428634L919.96,256.3599402772056L922.834875,215.72771685653265L925.70975,266.41331895192474L928.5846250000001,245.0500609212452L931.4595,240.442267563608L934.334375,262.2244839933184L937.20925,376.999985019366L940.0841250000001,273.95332174830975L942.9590000000001,330.0843843221665L945.833875,384.1211542553373L948.70875,317.5177546077305L951.5836250000001,253.4277308384578L954.4585000000001,265.9944853915109L957.333375,343.4889308346643L960.20825,230.38888888888894L963.0831250000001,228.7133049699996L965.9580000000001,265.9944853915109L968.8328750000001,377.8377769788107L971.70775,265.57552699248004L974.5826250000001,293.2221622996861L977.4575000000001,330.50334272119744L980.3323750000001,343.0699724356334L983.20725,386.21557173464043L986.0821250000001,226.61888749069644L988.9569999999999,259.2922745545706L991.831875,195.20225078529788L994.7067499999999,242.53668504291116L997.5816249999999,341.81334691577496L1000.4564999999999,196.8778347041872L1003.331375,203.99887910154135L1006.20625,250.07668783929617L1009.0811249999999,354.37997663021093L1011.9559999999999,223.68667805194858L1014.830875,159.17782072226208L1017.70575,345.58334831396746L1020.5806249999999,322.9633399248124L1023.4554999999999,180.5410787529416L1026.330375,47.33440429634516L1029.20525,245.0500609212452L1032.080125,291.12774482038293L1034.955,232.0644728077783L1037.829875,353.5421846707663L1040.7047499999999,372.3921916617288L1043.579625,268.9266948302588L1046.4545,311.2345021698211L1049.329375,271.0211123095619L1052.20425,234.57772384749524L1055.079125,291.12774482038293L1057.954,294.89774621857543L1060.828875,226.61888749069644L1063.70375,218.6600511338976L1066.578625,290.70891125996917L1069.4535,331.7599682410559L1072.328375,298.66774761676794L1075.20325,336.786719997724L1078.078125,353.5421846707663L1080.953,272.2777378294204L1083.827875,330.50334272119744L1086.70275,321.7067144049539L1089.577625,352.7043927113216L1092.4525,300.7621650960711L1095.327375,276.88553118705755L1098.20225,333.85438572035906L1101.077125,260.54890007442907L1103.952,291.5467032194138L1106.826875,414.2811654408774L1109.70175,183.05445463127563L1112.576625,162.9478221204546L1115.4515000000001,256.3599402772056L1118.326375,340.5567213959165L1121.20125,268.9266948302588L1124.076125,295.73553817802014L1126.951,321.28775600592303L1129.825875,330.9221762816112L1132.70075,209.86329797903701L1135.575625,278.9799486663607L1138.4505000000001,342.65113887521966L1141.3253750000001,341.3943885167441L1144.20025,399.20115984810735L1147.075125,317.5177546077305L1149.95,311.65333573023486L1152.824875,308.72112629148705L1155.69975,280.2366990248363L1158.574625,247.56331196096212L1161.4495000000002,184.3110801511341L1164.3243750000001,440.67105038960784L1167.1992500000001,305.7889168527392L1170.0741249999999,356.4743941095141L1172.9489999999998,233.3210983276368L1175.8238749999998,211.12004833751257L1178.69875,334.27334411938995L1181.573625,287.3577434221904L1184.4485,380.35115285714477L1187.323375,228.7133049699996L1190.19825,363.17660494645446L1193.073125,195.20225078529788L1195.9479999999999,313.3289196491242L1198.8228749999998,359.406728386879L1201.69775,232.902264767223L1204.572625,313.3289196491242L1207.4475,371.97335810131506L1210.322375,136.1388539340761L1213.19725,375.74335949950756L1216.072125,356.05556054910033L1218.947,321.28775600592303L1221.8218749999999,273.95332174830975L1224.69675,269.7644867897034L1227.571625,320.03113048606457L1230.4465,408.41662172476464L1233.321375,285.26332594288726L1236.19625,374.486609141032L1239.071125,299.0867060157989L1241.946,351.866725590494L1244.820875,376.1621930599213L1247.69575,265.57552699248004L1250.570625,269.34552839067254L1253.4455,384.958946214782L1256.320375,309.5589182509317L1259.19525,287.7767018212213L1262.070125,111.8433864646488L1264.945,327.9899668428634L1267.819875,377.41894341839696L1270.69475,413.02441508240184L1273.569625,247.98227035999307L1276.4445,280.6555325852501L1279.319375,325.89554936356024L1282.19425,293.641120698717L1285.069125,348.0967241923015L1287.944,409.2544136842093L1290.818875,286.93890986177666L1293.6937500000001,281.91228294372564L1296.568625,311.65333573023486L1299.4435,298.2489140563542L1302.318375,337.62438711855157L1305.19325,403.80882836712743L1308.068125,266.8322773509556L1310.943,231.22668084833364L1313.817875,270.6022787491481L1316.6927500000002,418.4700003994837L1319.5676250000001,230.8077224493027L1322.4425,311.2345021698211L1325.317375,330.0843843221665L1328.19225,403.3899948067137L1331.067125,315.42333712842736L1333.942,339.7189294364718L1336.816875,280.2366990248363L1339.6917500000002,393.7555745310255L1342.5666250000002,389.56661473380206L1345.4415000000001,315.42333712842736L1348.3163749999999,143.67885673046115L1351.1912499999999,274.79111370775445L1354.0661249999998,241.2800595230527" style="fill: none;" fill="none"></path></g></g></g></g></g><g><g opacity="0.00138936"><span fill="rgb(0, 0, 0)" stroke="none" stroke-width="1px">Alt + Scroll to Zoom</span></g></g></g><g transform="translate(51, 377)" clip-path="url(#clip_1)"><clipPath id="clip_1"><rect width="1437" height="23"></rect></clipPath><g><g><line x1="0" y1="0" x2="0" y2="5" style="visibility: inherit;" fill="rgb(0, 0, 0)" stroke="rgb(204, 204, 204)" stroke-width="1px"></line><line x1="143.74375" y1="0" x2="143.74375" y2="5" style="visibility: inherit;" fill="rgb(0, 0, 0)" stroke="rgb(204, 204, 204)" stroke-width="1px"></line><line x1="287.4875" y1="0" x2="287.4875" y2="5" style="visibility: inherit;" fill="rgb(0, 0, 0)" stroke="rgb(204, 204, 204)" stroke-width="1px"></line><line x1="431.23125" y1="0" x2="431.23125" y2="5" style="visibility: inherit;" fill="rgb(0, 0, 0)" stroke="rgb(204, 204, 204)" stroke-width="1px"></line><line x1="574.975" y1="0" x2="574.975" y2="5" style="visibility: inherit;" fill="rgb(0, 0, 0)" stroke="rgb(204, 204, 204)" stroke-width="1px"></line><line x1="718.71875" y1="0" x2="718.71875" y2="5" style="visibility: inherit;" fill="rgb(0, 0, 0)" stroke="rgb(204, 204, 204)" stroke-width="1px"></line><line x1="862.4625" y1="0" x2="862.4625" y2="5" style="visibility: inherit;" fill="rgb(0, 0, 0)" stroke="rgb(204, 204, 204)" stroke-width="1px"></line><line x1="1006.20625" y1="0" x2="1006.20625" y2="5" style="visibility: inherit;" fill="rgb(0, 0, 0)" stroke="rgb(204, 204, 204)" stroke-width="1px"></line><line x1="1149.95" y1="0" x2="1149.95" y2="5" style="visibility: inherit;" fill="rgb(0, 0, 0)" stroke="rgb(204, 204, 204)" stroke-width="1px"></line><line x1="1293.6937500000001" y1="0" x2="1293.6937500000001" y2="5" style="visibility: inherit;" fill="rgb(0, 0, 0)" stroke="rgb(204, 204, 204)" stroke-width="1px"></line><line x1="1437.4375" y1="0" x2="1437.4375" y2="5" style="visibility: inherit;" fill="rgb(0, 0, 0)" stroke="rgb(204, 204, 204)" stroke-width="1px"></line></g><g transform="translate(0, 8)"><text x="0" y="0" dx="0em" dy="0.95em" style="text-anchor: middle; visibility: hidden; font-family: Roboto, sans-serif; font-size: 12px; font-weight: 200;" fill="rgb(33, 33, 33)" stroke="none" stroke-width="1px">-1k</text><text x="143.74375" y="0" dx="0em" dy="0.95em" style="text-anchor: middle; visibility: inherit; font-family: Roboto, sans-serif; font-size: 12px; font-weight: 200;" fill="rgb(33, 33, 33)" stroke="none" stroke-width="1px">0</text><text x="287.4875" y="0" dx="0em" dy="0.95em" style="text-anchor: middle; visibility: inherit; font-family: Roboto, sans-serif; font-size: 12px; font-weight: 200;" fill="rgb(33, 33, 33)" stroke="none" stroke-width="1px">1k</text><text x="431.23125" y="0" dx="0em" dy="0.95em" style="text-anchor: middle; visibility: inherit; font-family: Roboto, sans-serif; font-size: 12px; font-weight: 200;" fill="rgb(33, 33, 33)" stroke="none" stroke-width="1px">2k</text><text x="574.975" y="0" dx="0em" dy="0.95em" style="text-anchor: middle; visibility: inherit; font-family: Roboto, sans-serif; font-size: 12px; font-weight: 200;" fill="rgb(33, 33, 33)" stroke="none" stroke-width="1px">3k</text><text x="718.71875" y="0" dx="0em" dy="0.95em" style="text-anchor: middle; visibility: inherit; font-family: Roboto, sans-serif; font-size: 12px; font-weight: 200;" fill="rgb(33, 33, 33)" stroke="none" stroke-width="1px">4k</text><text x="862.4625" y="0" dx="0em" dy="0.95em" style="text-anchor: middle; visibility: inherit; font-family: Roboto, sans-serif; font-size: 12px; font-weight: 200;" fill="rgb(33, 33, 33)" stroke="none" stroke-width="1px">5k</text><text x="1006.20625" y="0" dx="0em" dy="0.95em" style="text-anchor: middle; visibility: inherit; font-family: Roboto, sans-serif; font-size: 12px; font-weight: 200;" fill="rgb(33, 33, 33)" stroke="none" stroke-width="1px">6k</text><text x="1149.95" y="0" dx="0em" dy="0.95em" style="text-anchor: middle; visibility: inherit; font-family: Roboto, sans-serif; font-size: 12px; font-weight: 200;" fill="rgb(33, 33, 33)" stroke="none" stroke-width="1px">7k</text><text x="1293.6937500000001" y="0" dx="0em" dy="0.95em" style="text-anchor: middle; visibility: inherit; font-family: Roboto, sans-serif; font-size: 12px; font-weight: 200;" fill="rgb(33, 33, 33)" stroke="none" stroke-width="1px">8k</text><text x="1437.4375" y="0" dx="0em" dy="0.95em" style="text-anchor: middle; visibility: hidden; font-family: Roboto, sans-serif; font-size: 12px; font-weight: 200;" fill="rgb(33, 33, 33)" stroke="none" stroke-width="1px">9k</text></g><line x1="0" y1="0" x2="1437.4375" y2="0" fill="rgb(0, 0, 0)" stroke="rgb(204, 204, 204)" stroke-width="1px"></line></g></g></g></g></svg>